<?xml version="1.0" standalone="no"?>
<!DOCTYPE svg PUBLIC "-//W3C//DTD SVG 1.1//EN" "http://www.w3.org/Graphics/SVG/1.1/DTD/svg11.dtd" >
<svg xmlns="http://www.w3.org/2000/svg" xmlns:xlink="http://www.w3.org/1999/xlink" version="1.1">
<metadata></metadata>
<defs>
<font id="goudy-old-styleoldstylenormal" horiz-adv-x="1024" >
<font-face units-per-em="2048" ascent="1638" descent="-410" />
<missing-glyph horiz-adv-x="569" />
<glyph horiz-adv-x="0" />
<glyph unicode="&#xd;" horiz-adv-x="681" />
<glyph unicode=" "  horiz-adv-x="569" />
<glyph unicode="&#x09;" horiz-adv-x="569" />
<glyph unicode="&#xa0;" horiz-adv-x="569" />
<glyph unicode="!" horiz-adv-x="507" d="M125 106q0 16 33 35q14 8 51 52.5t45 46.5q6 0 11 -2t10.5 -7.5t7.5 -8.5t6 -11t6 -10q8 -14 48 -47t40 -49.5t-35 -41.5q-14 -8 -48 -49t-42 -41t-15 4.5t-11.5 8.5t-10.5 12t-10 12q-6 10 -46 46t-40 50zM174 1303q0 47 24.5 67.5t92.5 20.5q49 0 51 -35q0 -31 -2 -66 t-5 -77t-5 -64l-19 -258q0 -61 -15 -249.5t-38 -190.5q-14 0 -19.5 12t-6.5 40.5t-1 33.5q-4 102 -20 300.5t-21 290.5q-2 31 -9 91.5t-7 83.5z" />
<glyph unicode="&#x22;" horiz-adv-x="663" d="M111 1366h147l-41 -549h-65zM408 1366h147l-41 -549h-68z" />
<glyph unicode="#" horiz-adv-x="1212" d="M98 469l13 70h245l56 315h-242l12 70h244l84 442h74l-84 -442h321l84 442h74l-84 -442h229l-10 -70h-235l-54 -315h230l-13 -70h-235l-88 -469h-74l88 469h-319l-88 -469h-76l90 469h-242zM430 539h322l53 315h-320z" />
<glyph unicode="$" horiz-adv-x="1009" d="M96 166q0 47 7.5 83t15.5 51t14 15q8 0 22.5 -26.5t37 -65.5t55.5 -76.5t91 -65.5t130 -30v617q-12 4 -63.5 24.5t-64.5 26.5t-54 25.5t-53.5 33t-40 39t-35.5 51t-17.5 61.5t-9.5 79q0 150 92 242.5t246 121.5v115q0 27 37 26h8q25 -2 25 -69q0 -14 -1 -40t-1 -32 q82 -4 191.5 -53t109.5 -113q0 -2 -1 -6t-1 -6q-2 -27 -17.5 -69t-36.5 -42q-6 0 -34.5 54.5t-83.5 111t-127 62.5v-496q162 -39 269 -139.5t107 -255.5q0 -172 -104 -290t-272 -140v-223q0 -37 -23 -41q-45 0 -45 34v228q-158 6 -262 65q-111 61 -111 113zM223 1077 q0 -109 65.5 -163t180.5 -78v475q-98 0 -172 -67.5t-74 -166.5zM537 57q119 16 196.5 93t77.5 196q0 129 -66.5 189.5t-207.5 111.5v-590z" />
<glyph unicode="%" horiz-adv-x="1681" d="M55 1012q0 145 99.5 255.5t242.5 110.5q145 0 250 -109.5t105 -255t-93.5 -254t-238.5 -108.5q-160 0 -262.5 100.5t-102.5 260.5zM199 1063q0 -129 60 -247t177 -118q92 0 134 85t42 190q0 76 -20.5 152.5t-75.5 140t-135 63.5q-88 0 -135 -85t-47 -181zM354 -51 q0 12 57.5 105t130 204t81.5 125l174 279q385 623 415 675q2 4 9.5 16.5t10.5 16.5t9 12.5t10 12.5t11.5 8t16.5 6t19 2q27 0 27 -14q0 -16 -15.5 -44t-43.5 -67l-27 -39l-375 -606l-182 -293l-166 -268q-6 -12 -23.5 -46t-27.5 -50.5t-31.5 -31.5t-46.5 -15q-33 0 -33 12z M930 350q0 145 99 256t243 111q145 0 249.5 -109.5t104.5 -255.5q0 -147 -94 -254.5t-240 -107.5q-160 0 -261 100t-101 260zM1073 401q0 -78 21.5 -156.5t78 -143t136.5 -64.5q92 0 134 85t42 187q0 125 -57.5 241t-170.5 116q-90 0 -137 -84.5t-47 -180.5z" />
<glyph unicode="&#x26;" horiz-adv-x="1841" d="M139 492q0 150 87 258t233 145q-88 117 -88 235q0 115 95 185.5t214 70.5q68 0 143.5 -25.5t85.5 -25.5q8 0 18.5 9.5t16.5 9.5q29 0 29 -56q0 -29 5 -87t5 -87q0 -27 -18 -28q-6 0 -43 58t-108 116.5t-161 58.5q-63 0 -115.5 -41t-52.5 -102q0 -31 11.5 -63.5 t22.5 -56.5t39 -58.5t41 -49t49 -50.5t42 -44l252 -260q111 -113 279 -256q51 90 51 187q0 88 -30 138t-65.5 58t-65.5 16.5t-30 24.5v2q4 14 19 14q18 0 53 -3t51 -3q39 0 116 3t116 3q16 0 20 -16q0 -16 -26 -27q-39 -14 -52.5 -77.5t-33 -170t-68.5 -190.5 q297 -250 436 -250q8 0 64 17q25 0 24 -13q0 -20 -45 -43q-68 -33 -153 -32q-78 0 -160 33.5t-129 65.5t-131 97q-225 -197 -467 -196q-233 0 -404.5 138t-171.5 368zM254 573q0 -193 162 -328.5t358 -135.5q205 -1 344 120q-328 281 -559 551q-2 2 -9 11.5t-11 13.5 t-11.5 12t-12.5 12.5t-13 10.5t-14.5 9t-13.5 5t-15 2q-92 0 -148.5 -92t-56.5 -191z" />
<glyph unicode="'" horiz-adv-x="382" d="M115 1366h151l-41 -549h-69z" />
<glyph unicode="(" horiz-adv-x="544" d="M70 594q0 246 98 472t276 404q16 16 50 17q20 0 20 -12q-2 0 -46 -61.5t-60 -88.5q-178 -283 -179 -612q0 -377 183 -758q61 -137 94 -178q8 -12 10 -21q0 -14 -20 -14q-47 0 -120 81t-140.5 200.5t-116.5 277.5t-49 293z" />
<glyph unicode=")" horiz-adv-x="544" d="M33 1473q0 16 30 16q33 -4 99.5 -76t138.5 -182.5t125 -273t53 -322.5q0 -225 -84 -443.5t-237 -379.5q-6 -6 -21.5 -23.5t-24 -25t-23.5 -14.5t-32 -7q-23 0 -22 12q94 129 106 150q178 283 178 612q0 377 -182 758q-63 141 -94 178q-8 12 -10 21z" />
<glyph unicode="*" d="M223 1157q0 23 14.5 58.5t30.5 39.5q43 0 106.5 -57t104.5 -57l2 2h2q4 2 4 12q0 74 -36 207q0 35 57 35h16q57 0 58 -33q0 -16 -19.5 -92t-19.5 -115q0 -10 6 -14h2l2 -2q14 0 168 102q16 12 35 12q20 0 33.5 -24.5t17.5 -48.5l2 -25q0 -31 -60.5 -41t-122 -15 t-61.5 -22q0 -10 19 -24q137 -117 141 -133q0 -27 -28.5 -53.5t-55.5 -26.5q-6 0 -15.5 9t-19.5 25.5t-20.5 35t-19.5 37t-15 33.5t-10 26l-6 12q-6 14 -11 14q-8 0 -12 -14q-2 -2 -18.5 -32t-35 -60.5t-37 -57t-26.5 -28.5q-27 0 -57.5 23.5t-30.5 49.5q0 16 17 27l125 113 q18 18 18 22q0 6 -10.5 11.5t-32 9.5t-40.5 7t-51 7t-52 8q-57 12 -58 37z" />
<glyph unicode="+" d="M49 653v84h420v393h86v-393h420v-84h-420v-393h-86v393h-420z" />
<glyph unicode="," horiz-adv-x="501" d="M125 106q0 16 29.5 46t59.5 52.5t32 22.5q53 0 92 -72.5t39 -129.5q0 -94 -65.5 -210t-143.5 -124q-20 0 -21 16q0 2 29 32t56.5 75t27.5 88q0 41 -21.5 77.5t-46 57t-46 40t-21.5 29.5z" />
<glyph unicode="-" horiz-adv-x="395" d="M6 330q0 68 14.5 88t73.5 39q25 6 151 54t146 48q10 0 10 -18v-15q0 -12 1 -29.5t1 -23.5q0 -29 -11 -39t-54 -24q-23 -6 -95.5 -36t-138 -53.5t-86.5 -23.5q-12 0 -12 33z" />
<glyph unicode="." horiz-adv-x="507" d="M125 106q0 14 33 37q14 8 50 51.5t46 45.5q18 0 41 -37q8 -16 48 -49t40 -49.5t-35 -41.5q-12 -6 -31.5 -29.5t-36 -42t-22.5 -18.5q-8 0 -15 4.5t-11.5 8.5t-10.5 12t-10 12q-6 8 -46 44t-40 52z" />
<glyph unicode="/" horiz-adv-x="937" d="M-53 -227.5q0 16.5 9 34t24.5 38t19.5 30.5l907 1579q12 23 33 23q53 0 53 -17q0 -10 -14 -35l-21 -34l-917 -1600q-23 -35 -57 -35q-37 0 -37 16.5z" />
<glyph unicode="0" horiz-adv-x="1009" d="M61 621q0 106 27 231t77 250t143 208t210 83q100 0 179 -49.5t125 -124t76 -175t41 -189.5t11 -179q0 -80 -13 -169t-47 -185.5t-81 -173t-123 -126t-166 -49.5q-123 0 -216 59.5t-144 158t-75 207t-24 223.5zM180 762q0 -94 20.5 -206t61.5 -230.5t121 -197.5t184 -79 q70 0 123 39t83 97.5t48.5 135t24.5 140t6 125.5q0 80 -10.5 165t-39 182t-70.5 173t-114.5 126t-162.5 50q-82 0 -140.5 -54t-85 -142.5t-38 -167t-11.5 -156.5z" />
<glyph unicode="1" horiz-adv-x="1009" d="M152 1194q0 10 4 18.5t12 15.5t16.5 12t20.5 9t20 7.5t20.5 7.5t16.5 4q123 37 223 121q25 18 29 18q18 0 18 -23q0 -20 -7 -61t-7 -63v-56v-979q0 -104 42 -143t147 -39q37 0 36 -18q0 -23 -30 -23q-27 0 -79 2t-79 2q-59 0 -174 -4t-174 -4q-27 0 -29 14q0 18 30 24.5 t66.5 10.5t66.5 42t30 114v864q0 49 -3 73.5t-24.5 48t-64.5 23.5q-27 0 -62 -16t-51 -16q-14 0 -14 14z" />
<glyph unicode="2" horiz-adv-x="1009" d="M111 10q0 12 7 26.5t15 24t22.5 23.5t18.5 18q182 223 323.5 482.5t141.5 464.5q0 111 -60.5 172t-168.5 61q-57 0 -107.5 -20.5t-77 -45t-53.5 -48t-41 -25.5q-20 0 -20 16q0 88 136 161t230 73q129 0 222.5 -78t93.5 -205q0 -238 -318 -694l-117 -172q-4 -6 -14 -20.5 t-17.5 -27t-9.5 -22.5q0 -43 205 -43h35q72 0 119 5t104.5 31t87.5 75q18 29 35 28.5t17 -16.5q0 -4 -68 -114.5t-88 -141.5q-88 0 -260 1t-260 1q-55 -6 -109 -6q-25 0 -24 16z" />
<glyph unicode="3" horiz-adv-x="1009" d="M100 94q0 20 17 21q4 0 93 -45t157 -45q166 0 271 124.5t105 292.5q0 127 -78.5 205t-205.5 78q-41 0 -60 -4q-20 0 -26 14q0 10 46 42t100 70t100.5 103.5t46.5 134.5q0 86 -59.5 142.5t-145.5 56.5q-63 0 -116.5 -29.5t-86.5 -58.5t-43 -29q-20 0 -20 21 q0 70 131 137.5t202 67.5q109 0 195 -62.5t86 -167.5q0 -168 -215 -338q133 0 219 -89t86 -224q0 -209 -147.5 -374t-356.5 -165q-68 0 -181.5 36t-113.5 85z" />
<glyph unicode="4" horiz-adv-x="1009" d="M31 459q0 20 26.5 69.5t70.5 114t83 119.5t83 116.5t52 71.5q319 451 356 457h3q12 0 15 -8t3 -37v-53v-740q47 0 72.5 4.5t36 9.5t33 18t44.5 26q25 0 25 -25q0 -20 -37 -139q-8 -39 -57 -39q-20 0 -59.5 1t-57.5 1v-242q0 -35 3 -105.5t3 -105.5q0 -84 -61 -94 q-25 -2 -46.5 -7t-32.5 -8t-16 -3q-6 0 -6 12q0 2 1 16.5t1 26.5v510q-78 0 -233.5 -2t-233.5 -2q-72 0 -71 37zM186 569h383v375v178q-172 -217 -383 -553z" />
<glyph unicode="5" horiz-adv-x="1009" d="M78 55q0 14 18 23q4 0 41 -12.5t87 -25.5t89 -13q180 0 301 123.5t121 304.5q0 147 -90 232t-237 85q-27 0 -75 -8t-71 -8q-41 0 -41 45q0 8 17 73l88 406q0 4 3 16.5t4 18.5t4 16t7 15.5t10 11.5t14.5 8t18.5 2h356q78 0 113 35q2 2 8 9t10.5 11t10.5 8.5t12 4.5 q18 0 18 -19q0 -20 -12 -39q-6 -12 -25.5 -57t-28.5 -57.5t-37 -29.5t-67 -17h-296h-13q-23 0 -39 -7.5t-24 -21.5t-11.5 -24.5t-5.5 -26.5l-2 -17l-47 -231q94 14 158 14q182 0 305 -103.5t123 -283.5q0 -219 -154.5 -381t-371.5 -162q-55 0 -172 23.5t-117 58.5z" />
<glyph unicode="6" horiz-adv-x="1009" d="M78 530q0 190 92 373.5t244 321.5q78 72 193.5 132t201.5 60q31 0 31 -20.5t-31 -28.5q-213 -63 -362.5 -238.5t-188.5 -398.5q152 139 297 139q164 0 269.5 -128t105.5 -296q0 -182 -109.5 -327.5t-288.5 -145.5q-143 0 -249.5 84t-155.5 208t-49 265zM242 485 q0 -94 33.5 -195.5t109.5 -180t174 -78.5q121 0 184.5 91t63.5 216q0 164 -86 306t-238 142q-123 0 -182 -86t-59 -215z" />
<glyph unicode="7" horiz-adv-x="1009" d="M150 1085q0 37 7 78t20 96.5t18 77.5q6 35 36 35q25 0 73 -3t71 -3q72 0 216 1t216 1q61 0 63 -37q0 -143 -72.5 -350t-152.5 -430t-90 -387q0 -127 31 -189q10 -20 10 -28q0 -25 -45 -39t-86 -17q-76 0 -76 154t59.5 323t130 292.5t133 278.5t68.5 280h-350 q-76 0 -125 -18.5t-68.5 -44.5t-27.5 -51.5t-13.5 -44t-17.5 -18.5q-29 0 -28 43z" />
<glyph unicode="8" horiz-adv-x="1009" d="M90 375q0 213 250 366q-197 111 -197 299q0 152 111 252.5t262 100.5q137 0 243.5 -84t106.5 -217q0 -216 -227 -318q121 -55 197.5 -147t83.5 -213q0 -186 -115 -313.5t-301 -127.5q-180 0 -297 111t-117 291zM190 401q0 -143 96.5 -256.5t237.5 -113.5q121 0 201 83 t80 205q0 55 -20.5 103.5t-42 78t-77 67.5t-78 51.5t-96 48.5t-83.5 41q-100 -43 -159 -122t-59 -186zM252 1104q0 -117 94 -198t213 -81q92 0 147.5 68t55.5 162q0 121 -77 199.5t-198 78.5q-98 0 -166.5 -65.5t-68.5 -163.5z" />
<glyph unicode="9" horiz-adv-x="1009" d="M78 911q0 188 112.5 335t296.5 147q203 0 323 -167t120 -378q0 -166 -67.5 -328t-184.5 -291q-102 -111 -236.5 -195.5t-257.5 -84.5q-33 0 -32 22q0 10 10 18.5t21.5 11.5t27.5 6t20 5q186 47 322.5 222t189.5 384q-61 -43 -94 -64.5t-89 -41.5t-111 -20 q-162 0 -266.5 128t-104.5 291zM203 1022q0 -98 31.5 -196.5t106.5 -174.5t177 -76q127 0 188.5 86.5t61.5 215.5q0 100 -33 200.5t-108.5 177t-180.5 76.5q-115 0 -179 -95t-64 -214z" />
<glyph unicode=":" horiz-adv-x="507" d="M125 106.5q0 14.5 33 36.5q14 8 50 51.5t46 45.5q18 0 41 -37q8 -16 48 -49t40 -49.5t-35 -41.5q-12 -6 -31.5 -29.5t-36 -42t-22.5 -18.5q-8 0 -15 4.5t-11.5 8.5t-10.5 12t-10 12q-8 12 -47 47t-39 49.5zM125 592q0 18 37 44t55 54q20 35 37 37q6 0 11 -2t10.5 -7 t7.5 -8t6 -11.5t6 -10.5q8 -16 48 -47t40 -49q0 -16 -35 -41q-16 -8 -47 -48t-43 -44q-8 0 -15 4t-11.5 8t-10.5 12.5t-10 12.5q-14 25 -50 52.5t-36 43.5z" />
<glyph unicode=";" horiz-adv-x="507" d="M125 592q0 12 14.5 24.5t39 31t38.5 40.5q18 35 37 37q18 0 41 -37q8 -18 48 -49t40 -47q0 -18 -35 -43q-10 -6 -30.5 -29.5t-37 -42t-22.5 -18.5q-8 0 -15 4t-11.5 8t-10.5 12.5t-10 12.5q-10 16 -48 47t-38 49zM127 106.5q0 12.5 19.5 35t46 47t32.5 32.5q12 6 25 6 q51 0 91 -72.5t40 -129.5q0 -92 -66.5 -209t-142.5 -125q-20 0 -20 16q0 4 27.5 33t55 74t27.5 88q0 55 -33.5 98t-67.5 68.5t-34 38z" />
<glyph unicode="&#x3c;" d="M88 694v13l846 544v-71l-647 -424l647 -432v-195z" />
<glyph unicode="=" d="M49 512v80h926v-80h-926zM49 799v82h926v-82h-926z" />
<glyph unicode="&#x3e;" d="M88 129v74l649 422l-649 434v192l846 -563v-14z" />
<glyph unicode="?" horiz-adv-x="641" d="M72 1280q0 51 69.5 82t126.5 31q98 0 174 -58.5t76 -156.5q0 -80 -43 -161t-95 -140.5t-95 -140.5t-43 -161q0 -23 14 -94q0 -18 -12 -18q-29 0 -41.5 51t-12.5 88q0 104 89.5 284.5t89.5 274.5q0 66 -50.5 111t-113.5 45q-45 0 -74 -28.5t-37 -28.5q-23 0 -22 20z M96 106q0 16 33 35q14 8 51 52.5t45 46.5q6 0 11.5 -2t10.5 -7.5t7 -8.5t6 -11t6 -10q8 -12 48 -47t40 -50q0 -16 -35 -41q-12 -8 -30.5 -30.5t-34.5 -41t-24.5 -18.5t-16.5 4.5t-11 7.5t-9.5 13t-8.5 12q-6 8 -29.5 28.5t-41 39t-17.5 28.5z" />
<glyph unicode="@" horiz-adv-x="1583" d="M115 600q0 356 227 577.5t586 221.5q238 0 404.5 -145.5t166.5 -381.5q0 -301 -188 -483q-115 -106 -224 -106q-66 0 -99.5 54t-33.5 124q0 20 2 28q-141 -211 -288 -210q-86 0 -133.5 75.5t-47.5 169.5q0 106 47.5 231.5t142.5 221.5t205.5 96t178.5 -115l16 91 q57 4 99 16l-113 -477q-23 -94 -23 -137q0 -104 72 -105q90 0 167 88t116 207t39 225q0 205 -148.5 338t-355.5 133q-340 0 -541 -221q-78 -86 -133 -232.5t-55 -262.5q0 -240 172 -414t411 -174q121 0 222.5 45t226.5 133l49 -25q-139 -104 -266 -160.5t-271 -56.5 q-252 0 -434 188.5t-196 442.5zM586 496q0 -61 29.5 -110.5t86.5 -49.5q92 0 177 123q47 68 67.5 116t32.5 109.5t16 77.5l29 92q4 16 4 27q0 57 -36 98t-93 41q-88 0 -164 -101.5t-112.5 -220t-36.5 -202.5z" />
<glyph unicode="A" horiz-adv-x="1366" d="M-41 10q0 12 16 21q23 6 41.5 14t35 23.5t25.5 24.5t21.5 33t17.5 34t18 41.5t18 42.5l514 1142q16 29 26 29q18 0 31 -29l430 -1099q2 -6 15.5 -42t15.5 -41t14 -34t18.5 -35t19.5 -26.5t25.5 -26.5t31 -18.5t40 -18.5t45.5 -10q29 -4 29 -22.5t-21 -18.5q-23 0 -66.5 2 t-66.5 2q-49 0 -149 -4t-152 -4q-27 0 -26 20q0 14 53 31.5t53 60.5q0 57 -61 217l4 -10q0 2 -17.5 49.5t-39 97.5t-29.5 56q-14 10 -43 10h-25h-364q-68 0 -89.5 -14t-50.5 -78q-2 -2 -38.5 -81t-53 -127t-16.5 -85q0 -53 28.5 -74.5t88.5 -33.5q31 -4 30 -25 q0 -16 -28 -16q-49 0 -144.5 4t-142.5 4q-2 0 -19.5 -3t-27.5 -3q-35 0 -35 20zM418 643q2 -27 49 -27h22h275h29q49 0 49 23q-1 8 -11 43l-157 395q-14 55 -33 56q-4 0 -16 -19l-195 -434q-12 -20 -12 -37z" />
<glyph unicode="B" horiz-adv-x="1255" d="M72 1352q0 25 39 24q23 0 66.5 -2t66.5 -2q57 0 170.5 5t171.5 5q109 0 205 -27.5t172.5 -102t80.5 -185.5q0 -76 -29.5 -136.5t-64.5 -89t-64.5 -50t-29.5 -31.5q2 -10 51 -21q111 -27 182.5 -121t71.5 -206q0 -199 -139 -315.5t-342 -116.5q-55 0 -167 8t-167 8 q-31 0 -96.5 -5t-95.5 -5q-25 0 -27 16q0 16 11.5 22.5t26.5 6.5t34.5 12t35 35.5t26.5 81t11 141.5v772q0 252 -159 258q-41 0 -41 21zM424 168q0 -47 20.5 -76t61.5 -40t71.5 -14t81.5 -3q178 0 254 69q100 92 101 242q0 178 -105.5 265t-285.5 87h-142q-20 0 -29.5 -1 t-17.5 -10t-8 -28v-460q0 -6 -1 -16.5t-1 -14.5zM426 823q0 -35 14.5 -44t53.5 -9h92q57 0 96 3t86 16.5t74.5 36t47 66.5t19.5 103q0 147 -113.5 238.5t-265.5 91.5q-59 0 -81.5 -21.5t-22.5 -78.5v-402z" />
<glyph unicode="C" horiz-adv-x="1429" d="M70 653q0 317 199.5 528.5t514.5 211.5q111 0 219.5 -32t173 -63.5t66.5 -31.5q10 0 24.5 11t24.5 11q15 -2 21 -39l30 -239q2 -4 3.5 -10.5t1.5 -10.5q0 -25 -19 -24q-8 0 -31.5 37.5t-64.5 93t-98.5 110t-149.5 92t-199 37.5q-260 0 -404 -160.5t-144 -426.5 q0 -184 62 -341t198.5 -262.5t322.5 -105.5q145 0 290.5 75.5t205.5 198.5q2 4 7 14.5t8 17.5t10.5 14.5t15.5 7.5q12 0 16 -13q0 -82 -33 -180q-8 -59 -196.5 -130t-360.5 -71q-309 0 -511.5 186.5t-202.5 493.5z" />
<glyph unicode="D" horiz-adv-x="1497" d="M72 1354q0 18 28 18q16 0 46 -2t54.5 -3t47.5 -1q63 0 190 10t191 10q362 0 563 -161q113 -88 175.5 -223.5t62.5 -282.5q0 -324 -200 -527.5t-525 -203.5q-53 0 -156 7t-156 7q-59 0 -243 -18q-31 0 -33 20q0 12 21.5 22t46 19.5t46 53.5t21.5 120v51v858 q0 88 -27.5 135.5t-62.5 54.5t-62.5 13t-27.5 23zM406 201q0 -47 16 -73t59 -40q131 -45 260 -45q256 0 397.5 166t141.5 424q0 305 -181 498.5t-483 193.5q-143 0 -186 -33q-24 -21 -24 -84v-1007z" />
<glyph unicode="E" horiz-adv-x="1134" d="M74 1354q0 27 45 26q43 0 186.5 -10t224.5 -10q80 0 238 9t236 9q29 0 28 -32l-16 -179q0 6 2 21v-16.5t-1 -22.5t-4 -22.5t-10.5 -19.5t-17.5 -7q-18 0 -18 33q0 55 -22.5 91t-69 51t-84 19t-97.5 4q-39 0 -103.5 -3t-82.5 -3q-55 0 -76.5 -15.5t-21.5 -68.5v-401 q0 -41 10 -53.5t49 -12.5q41 0 107.5 -2t93.5 -2q98 0 150 25.5t69 103.5q4 25 24 25q18 0 19 -21q0 -29 -4 -87t-4 -86.5t4 -90t4 -90.5q0 -27 -17 -27q-23 0 -30.5 26t-12 56.5t-44.5 56t-117 25.5h-219q-86 0 -86 -51q0 -8 2 -18.5t2 -12.5v-333q0 -94 27.5 -128 t115.5 -34q94 0 152.5 4t143.5 18.5t147.5 53t103.5 100.5q10 18 22 18q16 0 17 -20q0 -104 -96.5 -186t-206.5 -82q-70 0 -207 11t-205 11q-51 0 -143.5 -9t-128.5 -9q-31 0 -33 20q0 18 63 35q76 20 76 166q0 16 -1 42.5t-1 37.5v805v10q0 113 -28.5 168t-62.5 57t-62.5 4 t-28.5 23z" />
<glyph unicode="F" horiz-adv-x="1052" d="M70 1354q0 27 45 26q139 -14 358 -14h166q209 0 332 18q10 4 33 5q20 0 20 -19q0 -12 -4 -37l-4 -35q-2 -37 -5 -75.5t-12 -72.5t-18 -36q-20 0 -20 23q-6 84 -31 112.5t-101 36.5q-213 20 -321 21q-66 0 -90 -27q-12 -16 -12 -51v-15v-395q0 -47 18 -63.5t53 -16.5 q10 0 34 2t36 2q14 0 47 -1t53 -1q219 0 240 129q0 23 16 23q20 0 21 -29q0 -20 -2 -63t-2 -64q0 -37 1 -106.5t1 -106.5q0 -23 -17 -22q-12 0 -21.5 20.5t-15.5 46t-23.5 50t-43.5 32.5q-61 14 -164 15h-137q-66 0 -80 -8.5t-14 -45.5v-34v-330q0 -211 153 -213 q35 0 35 -21q0 -23 -29 -22q-27 0 -80 4t-79 4q-45 0 -133.5 -4t-133.5 -4q-25 0 -26 14q0 14 14 20t34.5 13.5t41 25t35 68.5t14.5 133v821v19q0 127 -39 180q-25 33 -61.5 40t-59 9t-22.5 19z" />
<glyph unicode="G" horiz-adv-x="1513" d="M70 682q0 297 207.5 504t504.5 207q74 0 150 -13.5t131 -32t99 -37t71 -31.5t29 -13q10 0 28.5 15t30.5 15q14 0 14 -22q0 -20 17 -184q18 -104 18 -107q0 -25 -20 -25q-12 0 -21 17q-76 156 -235.5 258t-331.5 102q-174 0 -296 -90t-176 -229t-54 -311 q0 -166 67.5 -317.5t200.5 -252t303 -100.5q106 0 202.5 42t159.5 122q33 41 33 137v186q0 84 -22.5 114t-100.5 30q-41 0 -49 26q0 25 23 25q20 0 62 -1t63 -1q168 0 252 6q8 0 15 -4t9 -8l4 -4q0 -18 -28 -27q-76 -18 -76 -141v-281q0 -12 1 -35.5t1 -36.5q0 -20 -35 -24 q-27 -2 -111 -49.5t-202.5 -92.5t-235.5 -45q-322 0 -512 192.5t-190 516.5z" />
<glyph unicode="H" horiz-adv-x="1544" d="M74 1364q0 20 22 20q39 0 118 -7t118 -7q31 0 92 5t92 5q29 0 29 -20q0 -18 -27 -23q-115 -33 -115 -139q0 -10 1.5 -24.5t1.5 -18.5v-328q0 -55 13.5 -67t72.5 -12h587q25 0 36 1t22.5 12t11.5 32v26v314q0 66 -15.5 109.5t-38 61t-46 25.5t-39 14.5t-15.5 16.5 q0 18 25 18q35 0 104.5 -6t104.5 -6q25 0 88 5t98 5q23 0 25 -16q0 -18 -25 -23q-72 -14 -93.5 -48t-21.5 -130v-932q0 -92 31 -139t115 -57q31 -4 33 -21q0 -10 -9.5 -17t-19.5 -7q-25 0 -76 4t-76 4q-174 0 -260 -6q-31 0 -30 18q2 16 16 19.5t32.5 6.5t38 16t35 61.5 t19.5 130.5v366q0 45 -11.5 54.5t-58.5 9.5h-587q-51 0 -68.5 -10.5t-17.5 -59.5v-326q0 -55 4 -88.5t18 -70.5t47 -56.5t86 -23.5q35 -4 39 -25q0 -23 -25 -22q-27 0 -84 4t-90 4q-45 0 -136 -3t-136 -3q-27 0 -29 16q0 18 27 27q84 18 104.5 55t20.5 148v71v815v43 q0 78 -27.5 119t-61.5 46t-61.5 11.5t-27.5 22.5z" />
<glyph unicode="I" horiz-adv-x="684" d="M74 1354q0 23 32 22q35 0 104 -4t103 -4q39 0 113 5t113 5q16 0 20 -14q0 -18 -24 -33q-86 -33 -106.5 -81t-20.5 -165v-12v-747q0 -59 4 -97.5t18 -83.5t49 -72.5t88 -35.5q51 -8 51 -25q0 -25 -32 -24q-25 0 -72 4t-72 4q-53 0 -156.5 -4t-154.5 -4q-25 0 -27 18 q0 14 24 24t52.5 19.5t52 61t23.5 139.5v858q0 113 -24.5 160t-127.5 65q-29 4 -30 21z" />
<glyph unicode="J" horiz-adv-x="600" d="M-55 -336q0 29 14 77t35 48q14 0 54 -35t65 -35q43 0 73.5 29t45 75t20.5 87t6 80q0 16 -2 46t-2 46v1014q0 119 -30.5 167t-137.5 70q-31 6 -31 26.5t70 20.5q29 0 101.5 -5t103.5 -5q98 0 174 8q27 0 28 -14q0 -20 -38.5 -33.5t-42.5 -17.5q-45 -29 -45 -174 q0 -16 1 -43t1 -35v-879v-49q0 -113 -41 -228.5t-131.5 -202.5t-206.5 -87q-78 0 -84 49z" />
<glyph unicode="K" horiz-adv-x="1300" d="M74 1354q0 20 26 20q33 0 97.5 -4t97.5 -4q29 0 84 2t82 2q-80 -6 -92 -6h-7q0 10 103 10q67 0 67 -17q0 -15 -24 -26q-45 -18 -66.5 -50t-25.5 -61.5t-4 -86.5v-390q0 -23 8 -22q6 0 31 24l432 385q2 2 17 15.5t19.5 17.5t17.5 17.5t18.5 21.5t12.5 20.5t10 25t3 24.5 q0 47 -57.5 54t-61.5 28q0 25 26.5 24.5t80 -5.5t80.5 -5q41 0 124.5 4t126.5 4q20 0 25 -20q0 -8 -6 -13.5t-12.5 -7.5t-17.5 -5t-13 -3q-31 -8 -66.5 -26.5t-79 -52.5t-69 -55.5t-72.5 -64.5t-57 -51l-342 -309q-25 -25 -25 -33q0 -16 25 -41l522 -544q78 -82 223 -117 q25 -4 25 -19q0 -25 -31 -24q-18 0 -55 3t-55 3q-23 0 -67 -2t-67 -2q-35 0 -75 45l-535 553l-22 22l-23 11q-18 0 -18 -23v-324q0 -74 3 -104.5t18.5 -66t51 -52t101.5 -26.5q29 -6 28 -21q0 -18 -20 -18q-43 0 -128 4t-128 4l-51 -4q-49 -4 -84 -4q-84 0 -84 22 q0 18 28 19q111 12 111 217v57v815q0 106 -30.5 150.5t-129.5 64.5q-25 4 -24 21z" />
<glyph unicode="L" horiz-adv-x="1032" d="M70 1352q0 23 32 22q37 0 109 -5t108 -5q35 0 106 3t105 3q23 0 23 -14q0 -25 -29 -29q-6 -2 -23.5 -6t-25.5 -7t-22.5 -11.5t-21.5 -22.5t-16 -36.5t-12.5 -57.5t-3.5 -80v-836q2 -23 3 -57.5t2.5 -46.5t4.5 -33.5t10 -27t18.5 -15.5t30.5 -12t44 -4t61 -2 q147 0 300 35.5t200 125.5q16 27 29 27q14 0 14 -16q0 -82 -82 -168q-84 -90 -262 -90q-68 0 -202 9t-201 9q-96 0 -236 -18q-29 0 -29 16q0 18 27 26t46.5 19.5t31.5 29t20.5 29t11.5 39t4 38t2 45t1 44.5v850q0 100 -31 144.5t-123 64.5q-25 4 -24 21z" />
<glyph unicode="M" horiz-adv-x="1812" d="M70 1354q0 18 20 18q25 0 72 -2t69 -2q31 0 65 3t40 3q23 0 38 -15.5t46 -70.5l416 -901q66 -129 67.5 -129t36.5 68l469 1005q20 45 41 47q16 0 53 -4q29 0 82 2t82 2q14 0 19 -16q0 -20 -21 -27q-92 -25 -113.5 -68.5t-21.5 -148.5q0 -39 1 -83t3 -97t2 -82l18 -545 q0 -20 1 -62t2.5 -62.5t8.5 -52.5t20 -48t40 -31.5t66 -21.5q51 -8 51 -25q0 -23 -41 -22q-35 0 -103.5 6t-103.5 6q-33 0 -96.5 -4t-95.5 -4q-31 0 -31 18q0 12 19.5 20.5t43 17.5t43 50t19.5 113q0 53 -4 164l-27 635q-88 -152 -113 -207l-88 -193l-102 -209 q-2 -6 -22.5 -53t-43 -99t-49 -107.5t-49 -91.5t-35.5 -36q-35 0 -94 146l-375 811l-24 -496q-4 -70 -4 -213q0 -205 125 -225q59 -6 61 -27q0 -27 -29 -26q-35 0 -104.5 6t-104.5 6q-29 0 -86 -6t-86 -6q-31 0 -30 24q2 10 26.5 20t53 26t53 71t28.5 145l15 289 q14 301 14 385q0 49 -2 84t-8 80t-19.5 76.5t-35 63.5t-56.5 51.5t-82 27.5q-31 6 -30 29z" />
<glyph unicode="N" horiz-adv-x="1533" d="M57 1354q0 23 19 22q31 0 90 -1t90 -1q27 0 51 -28l920 -1043q16 -23 26 -22q12 0 13 34v478q0 31 2 94t2 96q0 129 -23 215q-14 51 -50 81t-70.5 36t-63.5 15t-31 24q0 20 21 20q33 0 98.5 -5t97.5 -5h60q23 0 65.5 6t63.5 6q27 0 26 -22q0 -8 -44 -25.5t-52 -38.5 q-27 -49 -27 -172q0 -23 1 -68.5t1 -68.5v-643q0 -4 1.5 -28.5t2.5 -60.5t1 -69q0 -198 -37 -198q-8 0 -16.5 4t-11.5 7t-9 13t-8 12l-844 963q-12 16 -23 16q-20 0 -20 -30v-15v-676v-28q0 -68 6 -102.5t39 -67.5t98 -43q33 -4 33 -27q0 -20 -20 -20q-18 0 -105.5 7 t-140.5 7q-23 0 -67 -6t-66.5 -6t-28.5 14v2q-2 2 -2 4q0 12 27.5 22t59.5 25t59.5 77.5t27.5 166.5v647q0 61 -9 118.5t-31.5 118t-68 101.5t-106.5 49q-25 4 -27 19z" />
<glyph unicode="O" horiz-adv-x="1579" d="M70 684q0 309 208.5 509t518.5 200q307 0 510.5 -191.5t203.5 -496.5q0 -317 -201.5 -524.5t-516.5 -207.5q-324 0 -523.5 194.5t-199.5 516.5zM227 750q0 -135 42 -262.5t119 -229.5t195.5 -164.5t258.5 -62.5q240 0 381 179t141 433q0 276 -180 480t-453 204 q-242 0 -373 -164.5t-131 -412.5z" />
<glyph unicode="P" horiz-adv-x="1021" d="M72 1352q0 25 30 24q25 0 73 -7t73 -7q49 0 147.5 8t147.5 8q119 0 223 -34.5t181 -120.5t77 -207q0 -164 -124 -278.5t-290 -114.5q-23 0 -55.5 3t-71.5 14t-39 30q4 8 13 8q16 0 50 -4t50 -4q141 0 229 78.5t88 216.5q0 152 -119.5 247t-275.5 95q-45 0 -60.5 -14.5 t-17.5 -57.5l-2 -29v-835q0 -23 -1 -66t-1 -65q0 -104 39 -151.5t139 -53.5q31 0 31 -19q0 -27 -35 -26q-23 0 -67 4q-68 0 -200 -3t-200 -3q-25 0 -24 18q0 16 33 27q43 6 72.5 32.5t42 70.5t16.5 83t4 92v84v606v82q0 94 -18.5 150.5t-44 73t-51 20.5t-44 7t-18.5 18z" />
<glyph unicode="Q" horiz-adv-x="1579" d="M70 674q0 315 197.5 517t510.5 202q301 0 503 -196t202 -497q0 -287 -151.5 -479t-424.5 -246q123 -66 140 -73q18 -12 69 -48t84 -57.5t80 -41t84 -19.5t98.5 21.5t69.5 23.5q20 0 20 -17q0 -8 -5 -15t-10 -13t-15.5 -12.5t-16.5 -10.5t-17 -10t-13 -6q-92 -49 -195 -49 q-92 0 -215 56t-223.5 124t-217 124t-196.5 56q-70 0 -113 -51t-59 -101.5t-25 -50.5q-25 0 -24 33q0 74 48 149.5t114 102.5q-141 109 -220 260.5t-79 323.5zM229 764q0 -188 72 -353t220.5 -273.5t340.5 -108.5q221 0 349 165.5t128 393.5q0 182 -71.5 350t-217 282.5 t-331.5 114.5q-231 0 -360.5 -166.5t-129.5 -404.5z" />
<glyph unicode="R" horiz-adv-x="1259" d="M72 1350q0 23 30 22q27 0 81.5 -3t80.5 -3q49 0 148.5 6t148.5 6q444 0 465 -325q0 -121 -67.5 -216.5t-180.5 -152.5l277 -408q6 -8 34.5 -51t40 -58t40 -47t49 -46.5t53.5 -26.5t65 -12q35 0 35 -17q-2 -14 -35.5 -24t-61.5 -12t-46 -2q-98 0 -170 56t-137 154 l-250 379q-16 31 -46 47.5t-53.5 18.5t-68.5 2q-90 0 -90 -39v-313q0 -125 33.5 -185.5t148.5 -70.5q33 -6 37 -19q0 -25 -33 -24q-43 0 -128 4t-126 4q-141 0 -211 -10q-29 0 -29 20q0 16 25 21q80 16 104.5 77.5t24.5 157.5v66v669v152q-2 55 -16.5 92t-35 52.5t-45 24.5 t-45 10t-33.5 6t-13 18zM414 780q0 -47 12 -60t59 -13h113q131 0 206 72.5t75 203.5q0 147 -110 236.5t-261 89.5q-94 0 -94 -88v-35v-406z" />
<glyph unicode="S" horiz-adv-x="1048" d="M84 367q0 8 7 15t15.5 7t24.5 -35t45 -85t72 -100t118.5 -85t172.5 -35q131 0 230 80t99 207q0 102 -77.5 167.5t-188 102.5t-221.5 79t-188.5 130t-77.5 225q8 168 132 260.5t298 92.5q90 0 173 -32t93 -32t25.5 13.5t25.5 13.5q25 0 25 -49.5t16.5 -140.5t18.5 -105 q0 -31 -23 -31q-16 0 -31 47q-39 117 -152.5 183.5t-240.5 66.5q-100 0 -177 -62.5t-77 -160.5q0 -109 77 -176.5t186.5 -103.5t219 -75.5t186.5 -123.5t77 -217q0 -201 -139.5 -318t-346.5 -117q-74 0 -170 20.5t-141 55.5q-16 16 -51 148.5t-35 169.5z" />
<glyph unicode="T" horiz-adv-x="1245" d="M2 1096q0 14 10 75q4 25 8.5 85.5t16.5 85t45 24.5h1075q53 0 66.5 -13.5t13.5 -56.5q0 -68 10 -149q0 -31 -20 -31q-18 0 -25 31q-12 72 -45.5 93.5t-109.5 21.5h-281q-43 0 -55.5 -14.5t-12.5 -57.5v-932q0 -74 4.5 -108.5t35 -71.5t93.5 -47q33 -6 35 -21 q0 -25 -26 -24q-16 0 -51 5t-54 5q-51 0 -154.5 -4t-156.5 -4q-43 0 -43 18.5t33 22.5q84 8 107.5 50t23.5 126v43v932q0 33 -2 46t-15.5 24.5t-42.5 11.5h-266q-70 0 -110.5 -31t-48 -67t-15.5 -66.5t-25 -30.5q-18 0 -18 29z" />
<glyph unicode="U" horiz-adv-x="1591" d="M74 1350q8 20 39 20q37 0 109.5 -3t109.5 -3q84 0 125 4q-61 -6 -78 -6l-10 2q0 8 100 8q61 0 61 -14q0 -23 -30 -27q-98 -20 -99 -164q0 -16 1 -45.5t1 -42.5v-504q0 -256 80 -368q55 -78 155.5 -117t209.5 -39q258 0 373.5 131t115.5 393v476v36q0 88 -19.5 144.5 t-46 75t-54 25.5t-47 11.5t-19.5 18.5q0 20 20 20q129 -14 166 -14q166 6 168 6q6 0 11.5 -5t7.5 -9l2 -4q0 -14 -21 -23q-98 -39 -98 -198q0 -14 1 -40t1 -38v-459q0 -272 -109 -422q-76 -100 -205.5 -151.5t-267.5 -51.5q-281 0 -428 150.5t-147 433.5v510l-2 55 q-2 63 -16.5 106.5t-34 60t-41 25.5t-41 9t-31.5 6t-12 21z" />
<glyph unicode="V" horiz-adv-x="1404" d="M-29 1350q0 20 23 20q14 0 43 -2t43 -2q23 0 65.5 -1t65.5 -1q72 0 143 6q20 0 33.5 -5t18.5 -9l4 -6q0 -12 -12.5 -19.5t-29 -9.5t-28.5 -14.5t-12 -32.5q0 -48 43 -146l385 -880q12 -33 24 -33q6 0 12.5 8t10.5 16.5t8 19.5t6 13l17 37l219 520q143 334 143 426 q0 37 -20.5 54.5t-45 18.5t-45 7t-20.5 23q0 18 25 18q18 0 55 -2t55 -2q35 0 105.5 1t105.5 1q20 0 21 -18q0 -12 -21 -21q-20 -6 -37.5 -18t-29 -22.5t-23.5 -33t-16.5 -31.5t-16.5 -39t-14 -36l-498 -1165q-18 -49 -39 -49q-27 0 -43 51l-508 1173q-20 45 -33.5 68.5 t-43 50.5t-66.5 35q-4 0 -18.5 2t-24.5 4t-19.5 8t-9.5 17z" />
<glyph unicode="W" horiz-adv-x="1978" d="M-27 1348q0 25 23 24q78 0 229 -8q29 0 86.5 3t85.5 3q27 0 27 -24q0 -14 -42 -34t-42 -50q0 -63 74 -215q27 -61 96.5 -236.5t112.5 -269.5l98 -217q37 -88 47 -91q14 0 29 46l172 401l-113 268l-84 193q-45 109 -78 143q-14 12 -53 20.5t-69.5 17.5t-30.5 26 q0 25 43 24q33 0 99.5 -4t100.5 -4q31 0 91.5 4t91.5 4q27 0 26 -24q0 -12 -13 -19.5t-27.5 -11.5t-28 -19.5t-13.5 -42.5q0 -37 37 -125l107 -247q10 27 39.5 88t44 97t31 90t18.5 99q0 37 -25.5 47.5t-55.5 15.5t-34 30q0 23 49 22q12 0 39 -2t39 -2q33 0 97.5 4t97.5 4 q20 0 24 -18q0 -20 -35 -33q-25 -8 -46 -29.5t-29.5 -37t-24.5 -55.5t-18 -46l-164 -387l201 -473q35 -80 49 -80t32 45q10 23 75 164t99.5 225t87 211t83 223.5t38.5 159.5q0 43 -32.5 57.5t-65.5 21.5t-33 30q0 18 19 20q25 0 76 -2t77 -2q88 0 131 6q29 4 43 4 q23 0 25 -16q0 -20 -29 -35q-41 -16 -59 -61q-57 -123 -158.5 -357.5t-115.5 -267.5l-121 -270l-80 -191q-2 -6 -14.5 -38.5t-25.5 -63.5t-29.5 -64.5t-35 -55t-32.5 -21.5q-20 0 -43 47l-248 579l-250 -596q-18 -41 -35 -41q-8 0 -16 4.5t-13.5 9.5t-10.5 15t-7 15l-7 17.5 t-5 14.5l-414 989q-70 188 -119 258q-33 41 -74.5 54.5t-66.5 17.5t-25 25z" />
<glyph unicode="X" horiz-adv-x="1255" d="M-39 1356q0 23 41 22q45 0 136 -6t138 -6q23 0 71 4t71 4q33 0 33 -20q0 -12 -42 -26.5t-44 -43.5q0 -35 43 -100l221 -334q18 -29 22 -29t9.5 4t9.5 11.5t6 9.5l207 293q4 6 21.5 28.5t25.5 33.5t16 30.5t8 38.5q0 25 -16 39t-36.5 17t-37 11.5t-16.5 22.5t22 14 q25 0 75 -5t75 -5q31 0 93.5 6t93 6t30.5 -14q0 -18 -27 -33q-72 -25 -113.5 -59.5t-95.5 -108.5l-260 -362q-29 -39 -30 -58q-1 -20 26 -55l258 -387q8 -12 40 -63.5t48.5 -72t47 -56t63.5 -54t70 -26.5q35 -6 34.5 -24.5t-27 -18.5t-90 6t-98.5 6q-39 0 -112.5 -7 t-112.5 -7q-25 0 -24 20q0 16 45 34.5t45 53.5q0 27 -35 84l-262 393q-20 27 -25 27q-12 0 -45 -53l-102 -152q-6 -8 -46 -60.5t-62.5 -85t-46.5 -77.5t-24 -74q0 -23 13.5 -41t36.5 -20q2 0 15 -1t21.5 -2t18.5 -3t16 -8.5t6 -16.5q0 -18 -24 -18q-27 0 -82 6t-84 6 q-35 0 -103.5 -5t-103.5 -5q-27 0 -26 20q0 8 28.5 18t89 50.5t119.5 122.5q133 199 299 423q27 33 27 51.5t-37 75.5l-219 326q-6 10 -31 47t-35 51.5t-32.5 45t-40 45t-42 33t-50 28.5t-56.5 14q-39 6 -39 21z" />
<glyph unicode="Y" horiz-adv-x="1196" d="M-41 1356q0 23 31 22q29 0 89 -4t91 -4q43 0 125 3t125 3q27 0 29 -18q0 -10 -44.5 -31.5t-46.5 -54.5q0 -20 7.5 -43t15.5 -36t24.5 -36.5t22.5 -34.5l209 -329q20 -35 31 -35q12 0 30 30l146 220q119 184 119 227q0 45 -37 64.5t-75 28.5t-38 26q0 18 25 18 q113 -10 135 -10q39 0 118.5 3t120.5 3q27 0 27 -18q0 -12 -25 -23q-20 -8 -38.5 -18.5t-32 -18.5t-29.5 -24.5t-23.5 -23.5t-23.5 -28.5t-20.5 -28.5t-22.5 -34t-23 -33l-243 -362q-37 -53 -49.5 -90.5t-12.5 -100.5v-327v-62q0 -72 23.5 -106.5t105.5 -42.5q31 0 31 -21 q0 -23 -27 -22q-35 0 -106.5 7t-106.5 7q-29 0 -102.5 -5t-112.5 -5q-23 0 -22 18q0 16 25.5 23.5t55 12.5t55.5 45t26 114v57v297q0 98 -52 180l-280 443q-43 74 -94.5 115.5t-126.5 45.5q-29 0 -29 17z" />
<glyph unicode="Z" horiz-adv-x="1030" d="M29 23q0 23 10 34l676 1170q16 27 16 33q0 20 -31 20h-14h-252h-76q-74 0 -126 -21.5t-77.5 -51t-41 -59.5t-25.5 -51.5t-22 -21.5q-20 0 -21 19q0 25 12 73q4 16 6.5 76t17.5 90.5t54 30.5h365h383q53 0 59 -31q0 -23 -6 -33l-651 -1126q-23 -45 -23 -49q0 -43 154 -43 h61h158q100 0 167.5 19.5t91.5 42t46.5 45t42.5 26.5q18 0 18 -14q0 -55 -51 -128t-106 -73h-764h-14q-35 0 -37 23z" />
<glyph unicode="[" horiz-adv-x="532" d="M172 10v1225q0 20 1 62t1 63v27.5t2 33t6 25.5t14.5 22.5t24.5 6.5q23 0 67 -2.5t66 -2.5q41 0 84 7q23 0 25 -15q0 -20 -47 -26q-47 -4 -73 -33t-32 -60.5t-6 -80.5v-1182q0 -45 1 -74t9.5 -72t23.5 -68.5t46 -45t74 -19.5q41 0 43 -20q0 -25 -29 -25q-35 0 -51 2 q-33 0 -100.5 -5t-100.5 -5q-45 0 -45 57q0 33 -2 102.5t-2 102.5z" />
<glyph unicode="\" horiz-adv-x="937" d="M-53 1460q0 6 6 10.5t13 4.5h15.5t12.5 2q25 0 39 -23l907 -1579l-70 123q123 -219 123 -223q0 -16 -22 -17q-49 0 -72 33l-917 1600q-35 51 -35 69z" />
<glyph unicode="]" horiz-adv-x="532" d="M33 -219q2 12 22.5 16t49 8.5t57 17.5t48 57t19.5 118v1264v36q-2 61 -26.5 94t-53 37.5t-53 9.5t-24.5 19q0 18 24 19q4 0 16.5 -1t18.5 -1q31 0 91.5 1t90.5 1q29 0 37 -29q14 -33 15 -117q0 -18 -1.5 -51t-1.5 -45v-1225v-127q0 -84 -13 -106.5t-66 -22.5 q-12 0 -69.5 2t-100.5 2q-2 0 -15.5 -2t-21.5 -2q-43 0 -43 27z" />
<glyph unicode="^" d="M-49 588l565 846h12l545 -846h-72l-423 649l-433 -649h-194z" />
<glyph unicode="_" d="M49 -180h926v-82h-926v82z" />
<glyph unicode="`" d="M315 1167q0 33 37 33q53 0 80 -2q18 0 29 -22q6 -16 42 -88t46 -113q0 -27 -14 -27q-23 0 -66 37l-35 35t-53.5 55.5t-44 52t-21.5 39.5z" />
<glyph unicode="a" horiz-adv-x="835" d="M78 154q0 193 305 260q43 8 156 26v72q0 63 -5.5 103t-23.5 83t-61 63.5t-111 20.5q-57 0 -94 -28.5t-37 -81.5q0 -20 10 -56t10 -55q0 -16 -20 -16q-45 0 -86 18.5t-41 57.5q0 70 96 144.5t213 74.5q123 0 205 -57.5t82 -174.5v-391q0 -172 98 -172q8 0 23.5 3t21.5 3 q16 0 17 -20q-10 -18 -56.5 -32.5t-74.5 -14.5q-90 0 -152 100q-143 -111 -270 -111q-86 0 -145.5 48.5t-59.5 132.5zM211 186q0 -70 42 -110.5t109 -40.5q106 0 143.5 60.5t37.5 166.5q0 25 -2 72t-2 67q-78 -8 -142.5 -25.5t-125 -66.5t-60.5 -123z" />
<glyph unicode="b" horiz-adv-x="1030" d="M33 1354q0 14 33 24q123 29 223 88q6 6 18 7q18 0 19 -29v-731q160 127 301 127q162 0 257 -116t95 -282q0 -193 -117 -331t-305 -138q-57 0 -122.5 28t-109.5 54.5t-49 26.5q-29 0 -43 -54.5t-40 -54.5q-12 0 -19 21q0 27 7 80t7 80v997v25q0 165 -87 165h-1 q-14 0 -43 -4q-25 0 -24 17zM326 242q2 -92 87 -155.5t183 -63.5q135 0 208 99t73 240q0 150 -97.5 278t-244.5 128q-78 0 -143.5 -50t-65.5 -124v-313v-39z" />
<glyph unicode="c" horiz-adv-x="776" d="M55 379q0 180 124 320.5t302 140.5q61 0 146.5 -16.5t85.5 -55.5q0 -18 3 -54t3 -55q0 -49 -23 -51q-2 0 -17 17.5t-41 43t-57.5 51t-76.5 43t-92 17.5q-111 0 -166.5 -100t-55.5 -219q0 -154 91.5 -277t238.5 -123q51 0 106.5 26t92.5 51.5t41 25.5q16 0 16 -10 q0 -72 -129 -126.5t-217 -54.5q-164 0 -269.5 119t-105.5 287z" />
<glyph unicode="d" horiz-adv-x="1032" d="M55 383q0 178 123 317.5t299 139.5q117 0 244 -72v395q0 98 -26.5 140.5t-108.5 42.5q-27 0 -27 16q0 20 29 24q100 12 233 93q18 6 21 6q10 0 16 -39v-1249q0 -47 4 -72t25.5 -45.5t64.5 -20.5q4 0 12.5 1t12.5 1q23 0 29 -12q0 -27 -37 -31q-25 -2 -117 -24.5 t-109 -22.5q-24 0 -24 81v7q0 14 1 37t1 25q-57 -49 -92 -75t-93.5 -50.5t-115.5 -24.5q-164 0 -264.5 122t-100.5 290zM172 465q0 -150 92 -278t236 -128q86 0 153.5 50.5t67.5 132.5v329q0 90 -45 134q-100 96 -236 96q-129 0 -198.5 -99.5t-69.5 -236.5z" />
<glyph unicode="e" horiz-adv-x="813" d="M55 403q0 166 110.5 301.5t270.5 135.5q129 0 230.5 -99.5t111.5 -210.5q0 -36 -62 -36h-3q-25 2 -72 2t-72 2h-376q0 -102 33.5 -196.5t110.5 -162t181 -67.5q35 0 73 11t68.5 25.5t55 30t39 26.5t16.5 11q14 0 14 -16q0 -57 -124.5 -122t-219.5 -65q-170 0 -277.5 129 t-107.5 301zM197 551h338h22q57 0 57 33q0 84 -68.5 148.5t-152.5 64.5q-86 0 -136 -76t-60 -170z" />
<glyph unicode="f" horiz-adv-x="538" d="M59 739q0 72 82 72q12 0 34 -1t32 -1q14 248 98 383q63 104 154.5 175t197.5 71q76 0 80 -31q0 -29 -14 -78t-35 -55q-8 0 -18.5 16.5t-37 32.5t-77.5 16q-215 0 -215 -460q0 -47 2 -70q12 0 46 -1t54 -1q94 0 121 27l17 6q12 0 12 -19q0 -27 -20.5 -61.5t-39.5 -34.5 h-190v-557q0 -72 22.5 -101.5t90.5 -35.5q37 0 37 -18.5t-31 -18.5q-117 6 -119 6q-35 0 -102.5 -4t-100.5 -4q-27 0 -28 18q0 10 23.5 20.5t47 42t23.5 89.5v563h-117q-29 0 -29 14z" />
<glyph unicode="g" horiz-adv-x="851" d="M55 -195q1 117 144 164v8q-68 57 -68 111q0 119 117 201q-133 80 -133 248q0 129 89 216t218 87q78 0 168 -41t96 -41q102 0 148 112q0 12 14 13q18 0 18 -21q0 -66 -18.5 -111.5t-42 -64t-42 -31t-18.5 -16.5q0 -12 5.5 -39t5.5 -41q0 -129 -89 -219t-221 -90 q-27 0 -75.5 8t-73.5 8q-35 0 -60.5 -33.5t-29.5 -70.5q0 -59 60.5 -81t147.5 -22t175 -3t151.5 -43t67.5 -124q0 -137 -123 -210.5t-270 -73.5q-53 0 -109.5 9t-116 29.5t-97.5 62.5t-38 99zM150 -184q0 -88 75.5 -129t173.5 -41q66 0 132.5 14t126 57t59.5 111 q0 61 -88 83.5t-217 27t-168 16.5q-94 -43 -94 -139zM246 573q0 -106 50 -195t150 -89q90 0 136.5 73.5t46.5 169.5q0 100 -54.5 187.5t-148.5 87.5q-82 0 -131 -74t-49 -160z" />
<glyph unicode="h" horiz-adv-x="1087" d="M31 1348q0 16 22 20q74 18 142 53q8 4 23 12.5t25.5 14.5t25 11t26.5 5q14 -2 14 -18q0 -12 -1 -39t-1 -41v-686q129 160 281 160q143 0 229 -102.5t86 -248.5v-317q0 -78 26.5 -105.5t104.5 -39.5q27 -4 27 -19q0 -23 -29 -22q-106 8 -160 8q-29 0 -88 -4t-90 -4 q-18 0 -22 14q0 10 14 19.5t32.5 19.5t33 38.5t14.5 72.5v333q0 113 -64.5 194t-175.5 81q-76 0 -147.5 -49.5t-71.5 -122.5v-387q0 -88 25.5 -125t109.5 -49q33 -4 35 -23q0 -18 -20 -18q-27 0 -82.5 4t-83.5 4q-33 0 -102.5 -4t-102.5 -4q-25 0 -25 16q0 10 28 23.5 t54.5 44t26.5 79.5v56v1014q0 118 -67 118h-1q-8 0 -23.5 -1t-23.5 -1q-25 0 -24 15z" />
<glyph unicode="i" horiz-adv-x="505" d="M59 745q4 14 52 27q98 37 143 64q35 27 51 26q6 0 8 -2q8 -8 9 -43q0 -8 -1.5 -54t-1.5 -87v-510q0 -76 24 -98.5t103 -34.5q35 -6 35 -23q0 -20 -26 -20q-23 0 -68 3t-68 3q-33 0 -102.5 -4t-101.5 -4q-27 0 -27 18q0 8 23.5 19.5t47 42t23.5 90.5v436q0 68 -18.5 100.5 t-75.5 32.5q-29 0 -29 18zM164 1147v2q2 18 39 61q35 41 55 41q18 0 50 -40t32 -62.5t-32 -62t-52 -42.5q-31 0 -61.5 36t-30.5 67z" />
<glyph unicode="j" horiz-adv-x="487" d="M10 -293q0 66 35 68h2q27 0 55.5 -42t51.5 -42q35 0 45 71q6 117 6 119v41l2 660q0 82 -22.5 110.5t-98.5 28.5q-29 0 -29 14v2q0 12 29 23q109 18 225 92q12 8 21 8h2q12 0 12 -24q-2 -8 -2 -27v-137l-2 -606q0 -70 -12.5 -143t-41 -147.5t-83.5 -121.5t-129 -47 q-66 0 -66 100zM182 1147v2q0 10 6.5 19.5t20.5 25.5l12 16l10 13q10 12 13.5 15t12.5 8t19 5q16 0 49 -38.5t33 -63.5q0 -23 -31.5 -62.5t-52.5 -42.5q-31 0 -61.5 36t-30.5 67z" />
<glyph unicode="k" horiz-adv-x="954" d="M33 1360q0 18 24 22q113 31 199 66q4 2 25.5 13.5t34 11.5t12.5 -19q0 -59 -2 -90v-944l299 256q4 4 14 16.5t16 16.5q6 16 7 24q0 25 -46.5 38t-46.5 28q0 18 27 18q18 0 54 -3t55 -3q37 0 106.5 2t106.5 2q20 0 20 -14q0 -16 -41 -29q-94 -18 -227 -129l-183 -160 q33 -41 97.5 -127t119 -149.5t113.5 -112.5q70 -55 172 -61q25 0 25 -17q0 -18 -27 -22q-6 0 -19.5 1t-21.5 1q-25 0 -72 -3t-71 -3q-74 0 -98 33l-146 155q-63 68 -174 215l-59 -51q0 -18 -2 -58t-2 -61q0 -88 28.5 -139t114.5 -51q29 -6 29 -19q0 -20 -31 -20q-16 0 -49 5 t-49 5h-89q-33 0 -88 -6t-73 -6q-31 0 -33 14q0 12 16.5 22.5t37 19.5t36.5 41t16 85v37v991q0 78 -30.5 108.5t-104.5 35.5q-20 0 -20 14z" />
<glyph unicode="l" horiz-adv-x="507" d="M31 1356q0 18 24 22q154 43 221 95q2 0 9.5 4t11.5 4q14 0 14 -51v-25v-1174q0 -96 28 -138t116 -54q29 -6 28 -23q0 -18 -22 -22q-10 0 -30.5 4t-33.5 4q-25 0 -74 1t-75 1q-92 0 -150 -12q-29 0 -28 20q0 10 26.5 21.5t52 42t25.5 92.5v55v1000q0 120 -83 120h-1 q-8 0 -20.5 -1t-16.5 -1q-23 0 -22 15z" />
<glyph unicode="m" horiz-adv-x="1589" d="M57 743q0 8 25 21q113 29 190 78q41 20 50 20q14 -2 14 -59q0 -14 -1 -48t-1 -50q115 135 266 135q160 0 248 -150q117 150 274 150q143 0 216 -91.5t73 -236.5v-324q0 -76 19 -104q31 -45 110 -53q20 0 23 -17q0 -20 -19 -20q-23 0 -67.5 4t-67.5 4t-91.5 -4t-105.5 -4 q-18 0 -24 14q-2 2 -2 6q0 6 21.5 15.5t44 42t22.5 100.5v305q0 119 -51.5 202t-165.5 83q-55 0 -121 -36t-70 -87q0 -16 4 -51t4 -51v-361q0 -74 25 -104.5t98 -38.5q29 -4 31 -19q0 -20 -20 -20q-23 0 -67 4t-66.5 4t-94 -4t-110.5 -4q-23 0 -25 16q0 12 14.5 17.5 t32 10.5t31.5 35.5t14 88.5v370q0 104 -55 166t-158 62q-76 0 -133 -46t-57 -120v-430q0 -66 29.5 -94.5t97.5 -36.5q29 -4 31 -21q0 -18 -27 -18q-33 0 -98.5 3t-98.5 3q-23 0 -69.5 -3t-69.5 -3q-25 0 -25 16q0 8 24 20.5t47.5 42t23.5 81.5v448q0 74 -26 100.5t-93 26.5 q-23 0 -23 14z" />
<glyph unicode="n" horiz-adv-x="1120" d="M57 745q0 16 27 21q92 16 221 88q10 6 23 6q18 0 18 -33q-6 -29 -6 -57q0 -16 2 -46t2 -44q133 160 279 160q82 0 154.5 -42t113.5 -112q49 -86 49 -252v-237q0 -31 2 -51.5t9 -45t25.5 -40t47.5 -19.5q68 -8 70 -23q0 -25 -23 -24q-33 0 -99.5 3t-99.5 3q-47 -6 -92 -6 q-63 0 -65 14q0 12 14 21.5t30.5 14.5t31 22.5t14.5 48.5q0 10 -2 35.5t-2 39.5v267q0 127 -59.5 209t-184.5 82q-74 0 -143.5 -46.5t-69.5 -115.5v-381q0 -92 26.5 -129t114.5 -43q10 -2 18.5 -7.5t12.5 -9.5l2 -4q0 -18 -22 -18q-16 0 -49 3t-50 3q-45 0 -136 -3t-136 -3 q-23 0 -23 14q0 8 27 20.5t52.5 49.5t25.5 106v424q0 41 -4 63.5t-22.5 41t-55.5 18.5q-6 0 -20.5 -1t-22.5 -1q-23 0 -25 16z" />
<glyph unicode="o" horiz-adv-x="991" d="M55 403q0 176 129 306.5t305 130.5q182 0 315.5 -123t133.5 -305q0 -190 -128 -314.5t-321 -124.5q-188 0 -311 121t-123 309zM197 453q0 -162 89 -299.5t242 -137.5q135 0 202 98.5t67 239.5q0 170 -82 308.5t-238 138.5q-133 0 -206.5 -104.5t-73.5 -243.5z" />
<glyph unicode="p" horiz-adv-x="1038" d="M57 743q0 8 56.5 33t121 51.5t74.5 36.5l6 4q4 4 9 4q20 0 20 -26q0 -52 -4 -154q143 147 283 148q162 0 261 -115t99 -281q0 -188 -121 -329.5t-305 -141.5q-86 0 -217 60q0 -37 -2 -99.5t-2 -87.5q0 -102 30.5 -149t127.5 -49q27 0 30 -17q0 -20 -28 -20h-86 q-88 0 -131 4q-25 0 -70 -4t-70 -4q-43 0 -43 18q0 12 16.5 20.5t36 19.5t36 55t16.5 120v748q0 78 -24.5 110.5t-98.5 32.5q-20 0 -21 12zM340 244q0 -100 74.5 -158.5t179.5 -58.5q139 0 206.5 94t67.5 237q0 154 -80.5 273t-226.5 119q-80 0 -150.5 -45t-70.5 -121v-340z " />
<glyph unicode="q" horiz-adv-x="1038" d="M55 371q0 201 135.5 345t335.5 144q72 0 157 -45t91 -45q27 2 47 59q23 61 37 62q18 0 19 -31v-14v-1047q0 -82 19 -105.5t89 -41.5q27 -6 27 -23q0 -18 -25 -18q-29 0 -88 2t-88 2t-84 -3t-82 -3q-25 0 -24 18q0 10 18 17.5t39.5 16.5t40 42t18.5 86v342 q-152 -160 -313.5 -160t-265 117t-103.5 283zM180 465q0 -154 86 -278t234 -124q100 0 168.5 50.5t68.5 144.5v18v334q0 74 -43 113q-104 90 -227 90q-129 0 -208 -106.5t-79 -241.5z" />
<glyph unicode="r" horiz-adv-x="694" d="M59 737q0 8 46.5 25.5t113 42t98.5 45.5q16 8 25 8q18 0 23 -35v-166q115 182 206 183q41 0 95 -45q4 -4 15 -12.5t19.5 -17.5t10.5 -17v-3q0 -18 -30 -58t-46 -42q-23 0 -64 26.5t-67 26.5q-57 0 -98 -46t-41 -105v-357q0 -94 28.5 -125.5t122.5 -39.5q33 0 33 -19 q0 -20 -31 -20q-39 0 -114.5 4t-114.5 4q-23 0 -66 -5t-65 -5q-31 0 -31 20q0 12 15.5 18t35 13.5t34.5 43.5t15 99v395q0 150 -114 150q-2 0 -8.5 -1t-8.5 -1q-37 0 -37 16z" />
<glyph unicode="s" horiz-adv-x="739" d="M109 223q0 66 24 66q12 0 26.5 -41t32 -91.5t69.5 -91t130 -40.5q68 0 114 46t46 111q0 57 -43 99.5t-105.5 68t-124 55t-104.5 81.5t-43 126q0 100 82 164t184 64q61 0 136 -19.5t75 -56.5q0 -18 3 -53t3 -54q0 -45 -22 -45q-6 0 -27.5 44t-74 89.5t-128.5 45.5 q-55 0 -95 -33t-40 -88q0 -53 43 -90t104.5 -60.5t124 -50.5t108.5 -79t50 -128q0 -117 -82.5 -203t-199.5 -86q-82 0 -180 47q-8 4 -34 8.5t-37 14.5t-11 33q0 25 -2 74t-2 73z" />
<glyph unicode="t" horiz-adv-x="542" d="M31 737q0 2 42 44t93 99.5t70 88.5q29 43 38 43q14 0 15 -27l-4 -172h213q45 0 67 16q18 12 23 13q10 0 10 -15q-2 -4 -6 -17t-6 -20.5t-7.5 -19.5t-10.5 -20.5t-12 -15.5t-15.5 -11t-18.5 -4h-237v-504q0 -86 34.5 -128t118.5 -42q37 0 89.5 24.5t66.5 24.5q6 0 6 -4 q2 -2 2 -8q0 -39 -86 -74t-139 -35q-113 0 -172.5 63.5t-59.5 178.5v504h-88q-27 0 -26 18z" />
<glyph unicode="u" horiz-adv-x="1030" d="M27 811q0 27 137 27q14 0 47 9t49 9q20 0 24.5 -13.5t4.5 -49.5l-4 -447q0 -143 43 -205q66 -96 174 -96q96 0 160.5 55.5t64.5 149.5v442q-1 63 -31 83q-29 19 -58 19h-3q-31 -1 -31 17q0 20 35 25q143 10 182 20q12 4 25 4q20 0 20 -33v-14v-616q0 -43 3 -70 t23.5 -53.5t59.5 -26.5q4 0 11.5 1t11.5 1q25 0 29 -14q0 -25 -52 -25q-31 0 -95 -9t-97 -9t-33 82v49q-119 -150 -283 -150q-143 0 -220 89.5t-77 234.5q0 10 1.5 34.5t1.5 35.5v331q0 55 -31 75t-61.5 22t-30.5 16z" />
<glyph unicode="v" horiz-adv-x="851" d="M-55 795q4 20 22 19q27 0 80 -2.5t80 -2.5q31 0 91.5 2t90.5 2q20 0 23 -14q0 -14 -17.5 -20.5t-39 -6.5t-40 -12t-20.5 -37q0 -39 18 -72l220 -504l165 355q49 104 52 182q0 41 -18.5 60.5t-40 20.5t-42 6t-22.5 22q0 23 26 21q16 0 47 -1.5t46 -1.5q31 0 94 2t94 1 q27 0 27 -15q-2 -16 -12.5 -20.5t-25 -3.5t-37 -22.5t-44.5 -74.5l-326 -680q-10 -23 -30 -25q-29 0 -41 27l-289 659q-41 88 -111 115q-20 10 -20 21z" />
<glyph unicode="w" horiz-adv-x="1296" d="M-25 791q0 18 25 18q16 0 49 -2t49 -2q33 0 100.5 2t100.5 2t33 -21q-2 -16 -47 -27t-45 -59q0 -27 28 -102l168 -450l197 401q-4 10 -14.5 42t-16.5 46t-18.5 41t-24.5 41t-31.5 28.5t-42.5 20.5q-25 4 -24 18q0 25 31 25q25 0 74.5 -3t74.5 -3q27 0 78 3t78 3 q25 0 24.5 -18.5t-22.5 -22.5q-66 -16 -70 -57q0 -31 21 -88l178 -469l106 243q6 16 27.5 65.5t32 75t20.5 66.5t10 76q0 47 -29.5 65.5t-59 23.5t-29.5 20q0 20 24 20q23 0 69 -2t68 -2q25 0 70 2t70 2q6 0 11 -4t7 -8l2 -4q0 -14 -22 -23q-37 -12 -56.5 -33.5t-36.5 -64.5 l-284 -664q-16 -39 -45 -39q-33 0 -43 31l-178 471l-230 -477q-8 -20 -37 -25q-27 0 -39 21l-237 612q-43 129 -119 160q-25 8 -25 25z" />
<glyph unicode="x" horiz-adv-x="892" d="M4 799q6 16 25 16q10 2 28 2q25 0 75 -3t75 -3q53 0 155 4q23 0 23 -16.5t-36 -24.5t-38 -26q0 -25 43 -82l135 -174l117 139q4 6 16.5 20.5t18.5 22.5t12 21.5t6 25.5q0 37 -50 49t-50 29q0 18 29 18q74 -6 149 -6q68 0 135 6q27 0 29 -12q0 -23 -27 -27 q-80 -20 -176 -129l-172 -205l226 -286q80 -106 161 -125q25 -8 25 -23q0 -20 -23 -20q-27 0 -79 4t-78 4q-29 0 -166 -10q-27 0 -29 16q0 20 32 31.5t32 32t-31 59.5l-158 207q-8 -8 -44 -48t-60.5 -70t-48 -67.5t-23.5 -58.5q0 -55 74 -59q29 -4 29 -23q0 -20 -25 -20 t-72 4t-71 4l-160 -6q-20 0 -25 12q0 16 17 25q47 16 90 43.5t84 70.5t66.5 74t69.5 89t60 79l-215 279q-74 90 -155 112q-25 4 -25 25z" />
<glyph unicode="y" horiz-adv-x="786" d="M-39 797q0 20 31 20q25 0 76 -3t75 -3q29 0 85.5 2t84.5 2q25 0 27 -16q0 -14 -18.5 -20.5t-39 -7.5t-39 -13.5t-18.5 -36.5q0 -35 33 -111l197 -467l147 412q25 61 25 125q0 45 -33 66.5t-65.5 30.5t-32.5 26q2 14 20 14q14 0 43 -2t43 -2q33 0 97.5 2t97.5 2 q20 0 20 -18q0 -10 -20 -21q-41 -16 -57.5 -36.5t-32.5 -65.5l-355 -1000q-14 -45 -30.5 -55t-67.5 -10h-14q-55 0 -56 14q0 8 29 45t64.5 81t64.5 103.5t29 108.5q0 33 -37 121l-252 582q-23 55 -47.5 81.5t-38.5 26.5t-24.5 3t-10.5 20z" />
<glyph unicode="z" horiz-adv-x="692" d="M59 20q0 12 21 43l407 615h-204q-70 0 -109 -16.5t-46 -36t-16.5 -38t-25.5 -20.5q-20 0 -20 23q0 16 8 49q4 18 9 58t10 61.5t22.5 40t48.5 18.5q70 0 205 -2t204 -2q51 0 52 -22q0 -6 -13 -31l-413 -633h229q72 0 112 34t56 68.5t27 36.5q18 0 18 -22q0 -29 -37 -136.5 t-78 -107.5h-426q-41 0 -41 20z" />
<glyph unicode="{" d="M213 643v29q98 6 152.5 39.5t54.5 122.5q0 41 -2 122.5t-2 122.5q0 98 5 162t25.5 111t44 71.5t77 39t106.5 17.5t147 3v-43q-141 -4 -209.5 -48t-70.5 -178q0 -39 4 -121.5t4 -123.5q0 -129 -34 -208t-126 -99v-7q154 -37 154 -252q0 -51 -2 -155.5t-2 -155.5 q0 -160 60 -215t222 -59v-43q-16 0 -53 -1t-57 -1q-160 0 -228.5 71.5t-68.5 233.5q0 49 7 149.5t7 147.5q0 123 -45 192.5t-170 75.5z" />
<glyph unicode="|" d="M461 -342v1706h102v-1706h-102z" />
<glyph unicode="}" d="M203 -182q47 0 83 6t63.5 12t49 23.5t34.5 28t22.5 41t14.5 46t8 59.5t4 64.5t1 77.5q0 20 -2 76.5t-2 89.5q0 283 156 313v7q-90 20 -122 83.5t-32 165.5q0 37 5.5 117t5.5 119q0 137 -59.5 213t-229.5 80v43q18 0 57 -1t59 -1q168 0 228.5 -72t60.5 -252 q0 -53 -2 -159.5t-2 -159.5q0 -92 53.5 -126t153.5 -40v-29q-102 -4 -154.5 -39t-52.5 -129q0 -70 3 -208t3 -208q0 -82 -22.5 -137t-52 -83.5t-92 -44t-108.5 -17.5t-132 -2v43z" />
<glyph unicode="~" d="M55 590q141 195 295 194q66 0 185.5 -41t185.5 -41q121 0 217 115l31 -18q-53 -82 -131 -138.5t-164 -56.5q-66 0 -193 44t-196 44q-18 0 -36 -3t-34 -11t-26.5 -13.5t-28 -21.5t-23.5 -21.5t-26.5 -26l-24.5 -24.5z" />
<glyph unicode="&#xa1;" horiz-adv-x="507" d="M125 870q0 18 34 43t52 52q20 37 47 36q8 -2 66.5 -63t58.5 -66q0 -16 -37 -47q-14 -10 -32.5 -33.5t-34 -40t-23.5 -16.5q-20 0 -39 37q-14 23 -37.5 42.5t-39 32.5t-15.5 23zM176 -360q0 39 7 115.5t7 90.5q4 92 20.5 291t20.5 301q2 12 2 27.5t1.5 25t3.5 17.5t7 12 t13 4q4 0 8 -7t8.5 -21.5t6.5 -29.5t5 -42t5 -51.5t5 -61.5t5 -66.5t5 -76.5t5 -82l19 -260q12 -139 12 -207q-2 -35 -51 -35q-111 0 -115 56z" />
<glyph unicode="&#xa2;" horiz-adv-x="1009" d="M145 696q0 162 99.5 293t253.5 170q0 25 -2 59.5t-2 45.5q0 59 43 59q16 0 19 -7t3 -48v-107q6 0 14.5 1t12.5 1q51 0 128 -15t87 -44q0 -23 4 -67t4 -66q0 -39 -23 -39q-6 0 -29.5 31.5t-74.5 73t-123 55.5v-709q37 -4 57 -4q123 0 226 92q12 12 20 12q12 0 12 -14 q0 -31 -63 -77t-119 -73q-41 -18 -133 -30v-172q0 -27 -22 -33q-39 0 -39 27v178q-152 10 -252.5 131t-100.5 276zM281 784q0 -123 56 -231.5t161 -151.5v699q-109 0 -163 -98.5t-54 -217.5z" />
<glyph unicode="&#xa3;" horiz-adv-x="1009" d="M23 666q0 2 1 9t3 21.5t2 30.5q0 18 12 18q4 0 16.5 -1t16.5 -1t14 1t16 1q84 0 125 -2q-33 127 -32 191q0 188 117.5 323.5t301.5 135.5q115 0 222.5 -63.5t107.5 -172.5q0 -41 -25.5 -70.5t-66.5 -29.5q-49 0 -69.5 27.5t-24.5 67.5t-11.5 79t-46 66.5t-116.5 27.5 q-102 0 -178 -70.5t-76 -173.5q0 -105 78 -338q29 4 90 5h59q53 0 80 4q27 0 27 -19q0 -4 -2 -19.5t-2 -25.5q0 -16 -25 -16q-35 0 -104.5 1t-104.5 1q31 -90 31 -199q0 -199 -232 -385q158 47 232 47q57 0 159.5 -59.5t163.5 -59.5q57 0 101.5 38t68.5 44q18 0 19 -14 q0 -59 -96.5 -121.5t-165.5 -62.5q-59 0 -200.5 62.5t-234.5 62.5q-55 0 -126.5 -22.5t-75.5 -22.5q-18 0 -23 12q0 27 44 67.5t96.5 81.5t96.5 106.5t44 135.5q0 25 -4 51.5t-8.5 46t-14.5 51t-15 45t-18.5 50.5t-17.5 45q-39 0 -114 -5t-111 -5q-4 0 -4 2z" />
<glyph unicode="&#xa4;" horiz-adv-x="1366" d="M131 1190l57 57l187 -186q143 111 307 110q145 0 305 -110l191 188l55 -57l-189 -191q102 -160 103 -305q0 -139 -107 -295l193 -190l-57 -57l-189 190q-158 -109 -305 -108q-145 0 -303 104l-186 -186l-56 57l185 184q-111 158 -111 307q0 131 106 304zM324 700 q0 -145 106.5 -250.5t251.5 -105.5t250.5 105.5t105.5 250.5q0 147 -104.5 254t-251.5 107t-252.5 -106.5t-105.5 -254.5z" />
<glyph unicode="&#xa5;" horiz-adv-x="1200" d="M0 1327v39h465v-39q-4 0 -24.5 1t-34.5 1q-98 0 -101 -41q0 -23 33 -88l309 -547l281 480q51 86 51 129q0 66 -121 65h-22v39h364v-39q-20 0 -39.5 -6t-34 -12t-31 -22.5t-24.5 -25t-23.5 -31t-19.5 -30.5t-19.5 -35.5t-19.5 -34.5l-151 -270h270v-53h-297l-137 -211v-37 h434v-55h-434v-303q0 -109 28.5 -136.5t112.5 -27.5h64v-37h-551v37h41q106 0 136 25.5t30 138.5v303h-433v55h433v21l-144 227h-289v53h263l-156 297q-33 63 -51.5 92t-58.5 53.5t-99 24.5z" />
<glyph unicode="&#xa6;" d="M461 313h102v-655h-102v655zM461 682v682h102v-682h-102z" />
<glyph unicode="&#xa7;" horiz-adv-x="1001" d="M70 -55q0 145 45 145q16 0 30 -47q31 -104 120 -168.5t197.5 -64.5t201 57t92.5 160q0 16 -3 30.5t-6.5 25.5t-12.5 22.5t-14 18.5t-19.5 17.5t-19.5 13.5t-24.5 12t-23.5 11t-26.5 11.5t-24.5 11.5q-20 8 -78 31.5t-87.5 36t-81.5 39t-83 47t-69 53t-58.5 65.5t-35.5 77 t-15 93q0 152 133 289q-76 92 -76 186q0 135 112.5 205t258.5 70q154 0 256 -70q90 -68 96 -88q0 -23 -8 -41l-6 -20q-6 -20 -12.5 -38t-16.5 -34.5t-18 -16.5h-2l-5 2q-16 8 -34 78q-23 80 -98.5 124t-161.5 44t-160 -47t-74 -129q0 -68 69.5 -119t170 -90t200 -85 t169 -129t69.5 -199q0 -139 -117 -299q68 -86 68 -164q0 -147 -129 -239.5t-283 -92.5q-109 0 -257 57.5t-148 147.5zM184 717q0 -86 65.5 -150.5t150.5 -98.5t199 -84t177 -101q53 78 62 168q0 109 -99.5 183.5t-262.5 142t-222 110.5q-70 -74 -70 -170z" />
<glyph unicode="&#xa8;" d="M283 1067v2q0 25 32.5 63.5t55.5 41.5q20 0 56 -40t36 -62.5t-31 -64.5t-51 -44q-25 0 -59.5 38.5t-38.5 65.5zM567 1067v2q0 23 34 62.5t54 42.5q20 0 56.5 -40t36.5 -62.5t-31 -64.5t-51 -44q-29 0 -63 38.5t-36 65.5z" />
<glyph unicode="&#xa9;" horiz-adv-x="1646" d="M113 684q0 293 208.5 501t501.5 208t501 -208t208 -501t-208 -502t-501 -209t-501.5 209t-208.5 502zM176 684q0 -266 190.5 -456.5t457 -190.5t456.5 190.5t190 456.5t-190 456.5t-456.5 190.5t-457 -190.5t-190.5 -456.5zM457 672q0 170 107.5 283.5t277.5 113.5 q45 0 113.5 -25.5t95.5 -25.5q16 0 27.5 17.5t11.5 35.5l34 2v-235h-32q-23 84 -85.5 135t-150.5 51q-131 0 -200.5 -99.5t-69.5 -238.5q0 -145 67.5 -240.5t206.5 -95.5q164 0 281 172v-71q-115 -152 -297 -152q-168 0 -277.5 103.5t-109.5 269.5z" />
<glyph unicode="&#xaa;" horiz-adv-x="649" d="M63 623v55h574v-55h-574zM72 926q0 143 354 225q0 45 -2 69.5t-12.5 58.5t-36 49t-66.5 15q-35 0 -84 -16t-51 -43q0 -10 9.5 -31.5t9.5 -33.5q0 -20 -14.5 -35t-35.5 -15q-23 0 -37 18.5t-14 41.5q0 68 74 107.5t145 39.5q197 0 197 -164v-274v-23q0 -68 33 -67 q28 0 59 57l21 -14q-47 -84 -109 -84q-74 0 -86 106q-131 -106 -229 -106q-51 0 -88 33.5t-37 85.5zM160 940q0 -37 23.5 -60.5t60.5 -23.5q80 0 182 98v162q-260 -57 -266 -176z" />
<glyph unicode="&#xab;" horiz-adv-x="663" d="M70 401q0 16 38.5 67.5t91 123.5t76.5 117q14 20 23 20q27 0 27 -27q0 -43 -55.5 -147t-55.5 -152q0 -41 67.5 -150.5t67.5 -146.5q0 -27 -22 -26q-16 0 -56.5 48t-83.5 107.5t-55 71.5q-63 53 -63 94zM311 410q2 8 39 59t85 120.5t69 115.5q16 29 31 28q27 -6 26 -33 q-4 -47 -52 -143t-48 -145q0 -41 64.5 -156t72.5 -160q0 -23 -23 -26q-18 0 -141 151.5t-123 188.5z" />
<glyph unicode="&#xac;" d="M74 467v80h876v-547h-182v467h-694z" />
<glyph unicode="&#xad;" horiz-adv-x="395" d="M6 330q0 68 14.5 88t73.5 39q25 6 151 54t146 48q10 0 10 -18v-15q0 -12 1 -29.5t1 -23.5q0 -29 -11 -39t-54 -24q-23 -6 -95.5 -36t-138 -53.5t-86.5 -23.5q-12 0 -12 33z" />
<glyph unicode="&#xae;" horiz-adv-x="1646" d="M113 684q0 293 208.5 501t501.5 208t501 -208t208 -501t-208 -502t-501 -209t-501.5 209t-208.5 502zM176 684q0 -266 190.5 -456.5t457 -190.5t456.5 190.5t190 456.5t-190 456.5t-456.5 190.5t-457 -190.5t-190.5 -456.5zM494 1020v37h321q301 0 301 -205 q0 -127 -141 -182l158 -271q29 -53 94 -53v-35h-158l-205 355h-155v-242q0 -43 13 -60.5t54 -17.5h35v-35h-313v35q57 0 77.5 13.5t20.5 64.5v518q0 49 -24.5 63.5t-77.5 14.5zM709 700h82q47 0 78.5 4.5t65.5 18.5t50 47t16 82q0 53 -18 87t-56 49.5t-72 19.5t-85 4h-61 v-312z" />
<glyph unicode="&#xaf;" d="M279 1040q0 10 10 41q10 53 28 56q49 0 147.5 -3.5t147.5 -3.5q18 0 53 1.5t54 1.5q47 0 47 -37q-2 -27 -15.5 -52.5t-35.5 -27.5q-51 0 -154.5 4t-154.5 4q-16 0 -45 -2t-46 -2q-37 0 -36 20z" />
<glyph unicode="&#xb0;" horiz-adv-x="894" d="M244 1124q0 84 61.5 138.5t145.5 54.5q82 0 141 -60.5t59 -140.5q0 -82 -61.5 -139t-143.5 -57q-84 0 -143 61t-59 143zM283 1124q0 -10 4 -30q10 -57 56 -96.5t106 -39.5q66 0 114.5 49.5t48.5 115t-51 111.5t-117 46q-63 0 -112 -46t-49 -110z" />
<glyph unicode="&#xb1;" d="M49 119v82h926v-82h-926zM49 680v84h420v393h86v-393h420v-84h-420v-387h-86v387h-420z" />
<glyph unicode="&#xb2;" horiz-adv-x="661" d="M80 559q0 18 41 59q102 117 193.5 278t91.5 275q0 63 -36 97.5t-98 34.5q-59 0 -111 -41t-61 -41q-20 0 -20 16q0 57 86 100t147 43q84 0 143.5 -45t59.5 -127q0 -90 -73.5 -217t-147.5 -224t-74 -112q0 -18 141 -18q143 0 189 63q14 18 27 19q16 0 16 -14 q0 -29 -98 -160q-20 0 -59.5 1t-57.5 1q-47 0 -139.5 -2t-139.5 -2q-20 0 -20 16z" />
<glyph unicode="&#xb3;" horiz-adv-x="661" d="M84 608q0 18 20 19q16 0 28.5 -13.5t40.5 -27t83 -13.5q98 0 162.5 71t64.5 169q0 74 -48 118t-122 44q-27 0 -37 -4q-25 0 -24 20q0 6 46 33t91 73t45 97q0 47 -34.5 79t-84.5 32q-55 0 -100 -35t-53 -35q-18 0 -19 18q0 47 84 88t129 41q68 0 124.5 -38.5t56.5 -104.5 q0 -18 -3.5 -34.5t-11.5 -33t-13 -26.5t-20.5 -27.5t-21.5 -24t-25.5 -26l-23.5 -23.5q78 -10 126 -61t48 -127q0 -129 -94.5 -227.5t-223.5 -98.5q-45 0 -117.5 21.5t-72.5 56.5z" />
<glyph unicode="&#xb4;" d="M479 969q0 25 16.5 62.5t41 82.5t30.5 62q10 23 29 22q27 2 80 2q31 0 37 -26q0 -16 -39 -63.5t-77 -87.5t-40 -40q2 0 2 2q-49 -37 -65 -37q-14 0 -15 21z" />
<glyph unicode="&#xb6;" horiz-adv-x="1124" d="M94 1051q0 162 106.5 238.5t274.5 76.5q18 0 55 -1t54 -1h475v-45h-49q-72 0 -95.5 -22.5t-23.5 -114.5v-21v-1167q0 -47 3 -71.5t24.5 -47t62.5 -22.5q10 0 32.5 1t35.5 1v-48h-242v1510h-193v-1510h-260v48q57 0 83 3t51.5 15t33.5 42t8 81v725q-14 0 -42.5 -1 t-43.5 -1q-158 0 -254 87t-96 245zM213 1022q0 -109 62.5 -177.5t166.5 -68.5h88v543h-75q-135 0 -188.5 -76t-53.5 -221z" />
<glyph unicode="&#xb7;" horiz-adv-x="534" d="M125 442q0 10 19.5 27.5t45 41.5t35.5 40q23 37 41 39q23 0 45 -41q10 -16 54.5 -53t44.5 -54q0 -23 -41 -45q-16 -12 -51 -55t-48 -45q-23 0 -49 41q-8 12 -33.5 33.5t-44 40t-18.5 30.5z" />
<glyph unicode="&#xb8;" d="M463 -487q8 14 34.5 30.5t47 40t20.5 62.5q0 45 -21.5 71.5t-45 43t-27.5 30.5q0 10 17.5 24.5t41 30t29.5 19.5q14 14 33 14q35 0 65.5 -56t30.5 -93q0 -80 -60.5 -146.5t-140.5 -85.5q-25 0 -24 15z" />
<glyph unicode="&#xb9;" horiz-adv-x="661" d="M106 1257q8 33 74 50q70 20 135 71q16 10 23 11q18 0 18 -19q0 -16 -5 -52t-5 -54v-578q0 -59 20.5 -79.5t77.5 -20.5h9q33 0 32 -19q0 -20 -24 -20q-27 0 -39 2q-45 0 -137 -2t-140 -2q-20 0 -22 14q0 16 29.5 20.5t59.5 23t30 69.5v510q0 25 -2 38t-13.5 27.5 t-33.5 14.5q-14 0 -37 -10.5t-33 -10.5q-16 4 -17 16z" />
<glyph unicode="&#xba;" horiz-adv-x="649" d="M39 623v55h573v-55h-573zM63 1096q0 117 74 198.5t189 81.5q117 0 189.5 -82t72.5 -200q0 -123 -71 -206t-191.5 -83t-191.5 83t-71 208zM152 1094q0 -254 174 -254q96 0 135 74.5t39 179.5q0 102 -40 174.5t-134.5 72.5t-134 -72.5t-39.5 -174.5z" />
<glyph unicode="&#xbb;" horiz-adv-x="663" d="M70 92q0 39 67.5 151.5t67.5 164.5q0 55 -48 149t-53 143q0 31 23 33q23 0 35 -28q23 -47 71 -117t83.5 -119t37.5 -61q0 -37 -49 -86q-37 -35 -83 -100.5t-78.5 -108.5t-49.5 -43q-25 0 -24 22zM315 104q0 18 69 139.5t69 159.5q0 41 -56.5 143.5t-56.5 153.5 q0 25 22 29q10 0 27 -20q20 -39 72.5 -110t93.5 -126.5t41 -71.5q0 -10 -3 -21t-11.5 -22.5t-14.5 -17.5t-18 -18.5t-14 -16.5q-20 -20 -65.5 -78.5t-81.5 -103.5t-46 -45q-27 0 -27 26z" />
<glyph unicode="&#xbc;" horiz-adv-x="1591" d="M106 1257q2 16 39 34t90.5 40.5t79.5 44.5q18 12 23 13q18 0 18 -21q0 -16 -5 -52t-5 -54v-576q0 -63 22.5 -82.5t88.5 -19.5q29 0 28.5 -18.5t-24.5 -18.5q-27 0 -79 1t-79 1t-79 -3t-79 -3q-20 0 -22 14q0 14 29.5 21.5t59.5 27t30 66.5v510q0 78 -49 78 q-12 0 -36 -9.5t-34 -9.5q-16 0 -17 16zM315 -39q2 0 62.5 97.5t134.5 215.5l72 117l172 279l223 360q152 242 195 318q2 4 8 14t8 14t7 11.5t9 10.5t9.5 8t11.5 7t14 4t16 2q29 0 29 -14q0 -12 -11 -34.5t-24.5 -41t-30 -43t-20.5 -31.5l-375 -606l-182 -291l-166 -268 q-10 -18 -28.5 -51t-25.5 -43t-19.5 -26.5t-24.5 -20.5t-31 -4q-33 0 -33 16zM958 274q0 14 12.5 40t30 51.5t44 62.5t43 57.5t41 52t26.5 33.5q201 268 227 273q20 0 21 -31q0 -8 -1 -20.5t-1 -14.5v-430q55 0 108 35q23 0 23 -23q0 -20 -12 -45q-16 -70 -68 -69 q-8 0 -25.5 2t-25.5 2q0 -33 -1 -99.5t-1 -99.5q0 -14 2 -39.5t2 -40.5q0 -49 -88 -49q-25 0 -25 17q0 12 2 18v293h-137h2q-39 -4 -80 -4q-119 0 -119 28zM1073 348h219v215v86q-53 -66 -219 -301z" />
<glyph unicode="&#xbd;" horiz-adv-x="1591" d="M106 1257q8 33 74 50q70 20 135 71q16 10 23 11q18 0 18 -19q0 -16 -5 -52t-5 -54v-578q0 -59 20.5 -79.5t77.5 -20.5h9q33 0 32 -19q0 -20 -24 -20q-27 0 -39 2q-45 0 -137 -2t-140 -2q-20 0 -22 14q0 16 29.5 21.5t59.5 25t30 66.5v512q0 78 -49 78q-12 0 -34 -9.5 t-32 -9.5q-20 0 -21 14zM315 -41q0 12 57.5 105.5t130 204t81.5 124.5l172 279l223 358q182 297 195 318q2 4 8 15t8 14t7 11.5t9 11.5t9.5 8t11.5 7t14 4t16 2q29 0 29 -14q0 -25 -86 -150l-375 -606l-182 -293l-166 -268q-6 -12 -23.5 -46t-27.5 -50.5t-31.5 -31.5 t-46.5 -15q-33 0 -33 12zM1010 14q0 10 5 19.5t21 23.5l15 17q104 117 195 277.5t91 275.5q0 63 -35.5 97t-99.5 34q-57 0 -110.5 -41t-61.5 -41q-20 0 -20 18q8 57 95 99.5t140 42.5q84 0 142.5 -46.5t58.5 -127.5q0 -94 -67.5 -213t-143.5 -217.5t-84 -120.5q0 -8 18 -13 q123 -6 125 -6q141 0 187 62q16 20 26 20q18 0 19 -16q-17 -35 -101 -158q-66 0 -196.5 -1t-196.5 -1q-23 0 -22 16z" />
<glyph unicode="&#xbe;" horiz-adv-x="1591" d="M84 608q0 14 16 19q2 0 28 -13.5t61.5 -27t66.5 -13.5q98 0 162.5 71t64.5 169q0 74 -48 117t-122 43q-6 0 -18 -1t-19 -1q-25 0 -24 20q0 2 46 30t91 74t45 99q0 47 -34.5 78t-84.5 31q-55 0 -100 -35t-53 -35q-18 0 -19 18q0 47 83 88t130 41q70 0 125.5 -37.5 t55.5 -103.5q0 -23 -6.5 -43t-11.5 -33.5t-21.5 -34t-22.5 -26.5t-29.5 -30t-27.5 -28q78 -14 126 -63t48 -127q0 -129 -94.5 -227.5t-223.5 -98.5q-45 0 -117.5 21.5t-72.5 58.5zM328 -41q0 4 3 9t3 7q49 61 262 416l174 279l223 360q131 209 193 318q2 4 9 16t9 15 t9.5 12.5t11.5 12.5t11 7t16.5 6t19.5 2q26 0 26 -14q0 -12 -11 -34.5t-24.5 -41t-29.5 -43t-21 -31.5l-374 -606l-183 -291l-245 -399q-10 -14 -39 -14h-11q-33 0 -32 14zM971 274q0 12 16.5 43t45 72t51 72t53.5 71l30 39q201 266 228 273q20 0 20 -39q0 -6 -2 -17v-10 v-430q49 0 109 35q23 0 22 -21q0 -4 -12 -47q-20 -72 -55 -71q-6 0 -28 3t-36 3q0 -27 -1 -79t-1 -79q0 -72 4 -106q0 -53 -41 -58q-35 -6 -47 -6q-23 0 -22 23v12v293h-218q-2 0 -21 -1t-32 -1q-63 0 -63 26zM1087 348h218v215v86q-109 -127 -218 -301z" />
<glyph unicode="&#xbf;" horiz-adv-x="641" d="M70 -205q0 66 28.5 130.5t68.5 117.5t81 107.5t69.5 119t28.5 129.5q0 20 -14 93q0 20 14 20q27 -2 39 -52t12 -89q0 -102 -88 -281.5t-88 -277.5q0 -66 48 -110t114 -44q43 0 74.5 27.5t36.5 27.5q23 0 22 -20q0 -51 -68.5 -82t-125.5 -31q-100 0 -176 59.5t-76 155.5z M233 868q0 20 36 42t53 53l8 12q8 14 14 19t14 7q8 0 14.5 -2t11.5 -7l7 -7t7 -11t8 -11q14 -20 36.5 -39t36 -31.5t13.5 -24.5q0 -18 -33 -37q-12 -8 -48 -52t-49 -46q-6 0 -11 2t-10 7.5t-7 8.5t-6 11t-6 10q-6 12 -47.5 45t-41.5 51z" />
<glyph unicode="&#xc0;" horiz-adv-x="1366" d="M-41 10q0 12 16 21q23 6 41.5 14t35 23.5t25.5 24.5t21.5 33t17.5 34t18 41.5t18 42.5l514 1142q16 29 26 29q18 0 31 -29l430 -1099q2 -6 15.5 -42t15.5 -41t14 -34t18.5 -35t19.5 -26.5t25.5 -26.5t31 -18.5t40 -18.5t45.5 -10q29 -4 29 -22.5t-21 -18.5q-23 0 -66.5 2 t-66.5 2q-49 0 -149 -4t-152 -4q-27 0 -26 20q0 14 53 31.5t53 60.5q0 57 -61 217l4 -10q0 2 -17.5 49.5t-39 97.5t-29.5 56q-14 10 -43 10h-25h-364q-68 0 -89.5 -14t-50.5 -78q-2 -2 -38.5 -81t-53 -127t-16.5 -85q0 -53 28.5 -74.5t88.5 -33.5q31 -4 30 -25 q0 -16 -28 -16q-49 0 -144.5 4t-142.5 4q-2 0 -19.5 -3t-27.5 -3q-35 0 -35 20zM418 643q2 -27 49 -27h22h275h29q49 0 49 23q-1 8 -11 43l-157 395q-14 55 -33 56q-4 0 -16 -19l-195 -434q-12 -20 -12 -37zM498 1718q0 33 37 33q53 0 79 -2q18 0 29 -23q6 -16 42 -87.5 t46 -112.5q0 -27 -14 -27q-23 0 -66 37q-4 4 -34.5 35t-53 55.5t-44 52t-21.5 39.5z" />
<glyph unicode="&#xc1;" horiz-adv-x="1366" d="M-41 10q0 12 16 21q23 6 41.5 14t35 23.5t25.5 24.5t21.5 33t17.5 34t18 41.5t18 42.5l514 1142q16 29 26 29q18 0 31 -29l430 -1099q2 -6 15.5 -42t15.5 -41t14 -34t18.5 -35t19.5 -26.5t25.5 -26.5t31 -18.5t40 -18.5t45.5 -10q29 -4 29 -22.5t-21 -18.5q-23 0 -66.5 2 t-66.5 2q-49 0 -149 -4t-152 -4q-27 0 -26 20q0 14 53 31.5t53 60.5q0 57 -61 217l4 -10q0 2 -17.5 49.5t-39 97.5t-29.5 56q-14 10 -43 10h-25h-364q-68 0 -89.5 -14t-50.5 -78q-2 -2 -38.5 -81t-53 -127t-16.5 -85q0 -53 28.5 -74.5t88.5 -33.5q31 -4 30 -25 q0 -16 -28 -16q-49 0 -144.5 4t-142.5 4q-2 0 -19.5 -3t-27.5 -3q-35 0 -35 20zM418 643q2 -27 49 -27h22h275h29q49 0 49 23q-1 8 -11 43l-157 395q-14 55 -33 56q-4 0 -16 -19l-195 -434q-12 -20 -12 -37zM635 1520q0 25 16.5 62.5t41 82.5t30.5 61q10 23 29 23q27 2 79 2 q31 0 37 -27q0 -16 -38.5 -63t-76.5 -87t-40 -40q2 0 2 2q-49 -37 -66 -37q-14 0 -14 21z" />
<glyph unicode="&#xc2;" horiz-adv-x="1366" d="M-41 10q0 12 16 21q23 6 41.5 14t35 23.5t25.5 24.5t21.5 33t17.5 34t18 41.5t18 42.5l514 1142q16 29 26 29q18 0 31 -29l430 -1099q2 -6 15.5 -42t15.5 -41t14 -34t18.5 -35t19.5 -26.5t25.5 -26.5t31 -18.5t40 -18.5t45.5 -10q29 -4 29 -22.5t-21 -18.5q-23 0 -66.5 2 t-66.5 2q-49 0 -149 -4t-152 -4q-27 0 -26 20q0 14 53 31.5t53 60.5q0 57 -61 217l4 -10q0 2 -17.5 49.5t-39 97.5t-29.5 56q-14 10 -43 10h-25h-364q-68 0 -89.5 -14t-50.5 -78q-2 -2 -38.5 -81t-53 -127t-16.5 -85q0 -53 28.5 -74.5t88.5 -33.5q31 -4 30 -25 q0 -16 -28 -16q-49 0 -144.5 4t-142.5 4q-2 0 -19.5 -3t-27.5 -3q-35 0 -35 20zM418 643q2 -27 49 -27h22h275h29q49 0 49 23q-1 8 -11 43l-157 395q-14 55 -33 56q-4 0 -16 -19l-195 -434q-12 -20 -12 -37zM502 1528q0 8 10 23.5t23 29.5l12 12l28.5 38t34 45.5t30.5 36 t35.5 29.5t33.5 9q39 0 68.5 -19.5t72.5 -71.5t47 -56q49 -50 51 -62q0 -16 -51 -37.5t-74 -21.5q-8 0 -31.5 23.5t-53 55t-31.5 33.5q-10 16 -21 17q-18 0 -54 -60.5t-57 -64.5q-18 0 -45.5 13t-27.5 28z" />
<glyph unicode="&#xc3;" horiz-adv-x="1366" d="M-41 10q0 12 16 21q23 6 41.5 14t35 23.5t25.5 24.5t21.5 33t17.5 34t18 41.5t18 42.5l514 1142q16 29 26 29q18 0 31 -29l430 -1099q2 -6 15.5 -42t15.5 -41t14 -34t18.5 -35t19.5 -26.5t25.5 -26.5t31 -18.5t40 -18.5t45.5 -10q29 -4 29 -22.5t-21 -18.5q-23 0 -66.5 2 t-66.5 2q-49 0 -149 -4t-152 -4q-27 0 -26 20q0 14 53 31.5t53 60.5q0 57 -61 217l4 -10q0 2 -17.5 49.5t-39 97.5t-29.5 56q-14 10 -43 10h-25h-364q-68 0 -89.5 -14t-50.5 -78q-2 -2 -38.5 -81t-53 -127t-16.5 -85q0 -53 28.5 -74.5t88.5 -33.5q31 -4 30 -25 q0 -16 -28 -16q-49 0 -144.5 4t-142.5 4q-2 0 -19.5 -3t-27.5 -3q-35 0 -35 20zM418 643q2 -27 49 -27h22h275h29q49 0 49 23q-1 8 -11 43l-157 395q-14 55 -33 56q-4 0 -16 -19l-195 -434q-12 -20 -12 -37zM436 1565q66 131 168 131q47 0 132 -30t130 -30q47 0 80 39 q6 6 10 6q27 0 29 -14q0 -49 -57.5 -90t-108.5 -41q-45 0 -130 28.5t-132 28.5q-33 0 -46 -8t-22.5 -21.5t-23.5 -19.5q-29 0 -29 21z" />
<glyph unicode="&#xc4;" horiz-adv-x="1366" d="M-41 10q0 12 16 21q23 6 41.5 14t35 23.5t25.5 24.5t21.5 33t17.5 34t18 41.5t18 42.5l514 1142q16 29 26 29q18 0 31 -29l430 -1099q2 -6 15.5 -42t15.5 -41t14 -34t18.5 -35t19.5 -26.5t25.5 -26.5t31 -18.5t40 -18.5t45.5 -10q29 -4 29 -22.5t-21 -18.5q-23 0 -66.5 2 t-66.5 2q-49 0 -149 -4t-152 -4q-27 0 -26 20q0 14 53 31.5t53 60.5q0 57 -61 217l4 -10q0 2 -17.5 49.5t-39 97.5t-29.5 56q-14 10 -43 10h-25h-364q-68 0 -89.5 -14t-50.5 -78q-2 -2 -38.5 -81t-53 -127t-16.5 -85q0 -53 28.5 -74.5t88.5 -33.5q31 -4 30 -25 q0 -16 -28 -16q-49 0 -144.5 4t-142.5 4q-2 0 -19.5 -3t-27.5 -3q-35 0 -35 20zM418 643q2 -27 49 -27h22h275h29q49 0 49 23q-1 8 -11 43l-157 395q-14 55 -33 56q-4 0 -16 -19l-195 -434q-12 -20 -12 -37zM453 1618v2q0 25 32.5 63.5t55.5 40.5q20 0 56 -39.5t36 -62.5 t-31 -64.5t-51 -44.5q-25 0 -59.5 39t-38.5 66zM737 1618v2q0 23 34 62.5t54 41.5q20 0 56.5 -39.5t36.5 -62.5t-31 -64.5t-51 -44.5q-29 0 -63 39t-36 66z" />
<glyph unicode="&#xc5;" horiz-adv-x="1366" d="M-41 10q0 12 16 21q23 6 41.5 14t35 23.5t25.5 24.5t21.5 33t17.5 34t18 41.5t18 42.5l514 1142q16 29 26 29q18 0 31 -29l430 -1099q2 -6 15.5 -42t15.5 -41t14 -34t18.5 -35t19.5 -26.5t25.5 -26.5t31 -18.5t40 -18.5t45.5 -10q29 -4 29 -22.5t-21 -18.5q-23 0 -66.5 2 t-66.5 2q-49 0 -149 -4t-152 -4q-27 0 -26 20q0 14 53 31.5t53 60.5q0 57 -61 217l4 -10q0 2 -17.5 49.5t-39 97.5t-29.5 56q-14 10 -43 10h-25h-364q-68 0 -89.5 -14t-50.5 -78q-2 -2 -38.5 -81t-53 -127t-16.5 -85q0 -53 28.5 -74.5t88.5 -33.5q31 -4 30 -25 q0 -16 -28 -16q-49 0 -144.5 4t-142.5 4q-2 0 -19.5 -3t-27.5 -3q-35 0 -35 20zM418 643q2 -27 49 -27h22h275h29q49 0 49 23q-1 8 -11 43l-157 395q-14 55 -33 56q-4 0 -16 -19l-195 -434q-12 -20 -12 -37zM547 1609.5q0 57.5 50 95.5t110 38q63 0 116.5 -36t53.5 -97 q0 -59 -53.5 -95t-116.5 -36q-59 0 -109.5 36.5t-50.5 94zM618 1612q0 -37 26 -65.5t63 -30.5q41 0 69.5 28.5t28.5 67.5q0 37 -27.5 65.5t-64.5 28.5q-39 0 -67 -27.5t-28 -66.5z" />
<glyph unicode="&#xc6;" horiz-adv-x="1697" d="M-53 6q0 20 26 25q27 8 49.5 23.5t43 42t30.5 42t32 53t28 46.5l598 1011q16 29 16 43q0 23 -21.5 33t-47 11t-47 5.5t-21.5 16.5q0 27 45 26q55 0 161.5 -10t161.5 -10q94 0 281.5 9t282.5 9q29 0 30 -22q0 -14 -4 -39q-2 -14 -4 -72.5t-10 -99.5t-29 -43q-18 0 -18 24 q-4 109 -56.5 138.5t-207.5 29.5q-27 0 -98.5 -1t-116.5 -1q-80 0 -80 -65v-12v-418q0 -33 13 -45.5t42 -12.5h123q135 0 212 19.5t87 81.5q6 47 25 51q23 0 22.5 -20.5t-5.5 -61.5t-5 -61q0 -18 -1 -55.5t-1 -55.5t4 -59t4 -60q0 -29 -18.5 -28.5t-26.5 26t-14.5 56t-39 56 t-94.5 25.5h-161q-72 0 -110 -5t-48 -12t-10 -22q0 -4 1 -13t1 -15v-377q0 -86 33.5 -109.5t123.5 -23.5q174 0 291 28.5t157 62.5t66.5 66.5t38.5 36.5q14 0 19 -14q0 -106 -93.5 -189t-199.5 -83q-66 0 -207 11t-215 11q-45 0 -134 -11t-134 -11q-31 0 -31 20 q0 10 34 25.5t66.5 58.5t32.5 121q0 14 -1 43t-1 45v227h-280h-74t-43.5 -9t-21.5 -10t-14 -25.5t-15 -32.5l-129 -222q-47 -70 -47 -102.5t22.5 -53t51 -27.5t53 -16.5t26.5 -19.5q0 -23 -29 -22q-29 2 -86 2q-43 0 -129 -3t-129 -3q-27 0 -26 22zM492 653q0 -31 51 -30h16 h258v587l-303 -512q-16 -29 -22 -45z" />
<glyph unicode="&#xc7;" horiz-adv-x="1429" d="M70 653q0 317 199.5 528.5t514.5 211.5q111 0 220.5 -33t175 -64.5t67.5 -31.5q8 0 21.5 12t23.5 12q15 -2 21 -39l30 -239q0 -2 2.5 -10.5t2.5 -10.5q0 -25 -19 -24q-8 0 -47 58t-93 127t-162.5 127t-240.5 58q-260 0 -404 -160.5t-144 -426.5q0 -184 62 -342 t198.5 -263.5t322.5 -105.5q143 0 292 78t204 198q2 2 8 17.5t14.5 26t18.5 10.5q12 0 16 -15q0 -84 -33 -178q-8 -59 -196.5 -130t-360.5 -71q-309 0 -511.5 186.5t-202.5 493.5zM672 -491.5q0 10.5 50 54.5t50 83q0 35 -13.5 60.5t-29.5 35.5t-31.5 23.5t-19.5 25.5 q0 10 17.5 24.5t41 30t29.5 19.5q14 14 33 14q35 0 65.5 -56t30.5 -93q0 -76 -66.5 -154t-140.5 -78q-16 0 -16 10.5z" />
<glyph unicode="&#xc8;" horiz-adv-x="1134" d="M74 1354q0 27 45 26q43 0 186.5 -10t224.5 -10q80 0 238 9t236 9q29 0 28 -32l-16 -179q0 6 2 21v-16.5t-1 -22.5t-4 -22.5t-10.5 -19.5t-17.5 -7q-18 0 -18 33q0 55 -22.5 91t-69 51t-84 19t-97.5 4q-39 0 -103.5 -3t-82.5 -3q-55 0 -76.5 -15.5t-21.5 -68.5v-401 q0 -41 10 -53.5t49 -12.5q41 0 107.5 -2t93.5 -2q98 0 150 25.5t69 103.5q4 25 24 25q18 0 19 -21q0 -29 -4 -87t-4 -86.5t4 -90t4 -90.5q0 -27 -17 -27q-23 0 -30.5 26t-12 56.5t-44.5 56t-117 25.5h-219q-86 0 -86 -51q0 -8 2 -18.5t2 -12.5v-333q0 -94 27.5 -128 t115.5 -34q94 0 152.5 4t143.5 18.5t147.5 53t103.5 100.5q10 18 22 18q16 0 17 -20q0 -104 -96.5 -186t-206.5 -82q-70 0 -207 11t-205 11q-51 0 -143.5 -9t-128.5 -9q-31 0 -33 20q0 18 63 35q76 20 76 166q0 16 -1 42.5t-1 37.5v805v10q0 113 -28.5 168t-62.5 57t-62.5 4 t-28.5 23zM387 1720q0 33 37 33q53 0 80 -2q18 0 28 -22q6 -16 42 -88t47 -113q0 -27 -15 -27q-22 0 -65 37l-35 35t-53.5 55.5t-44 52t-21.5 39.5z" />
<glyph unicode="&#xc9;" horiz-adv-x="1134" d="M74 1354q0 27 45 26q43 0 186.5 -10t224.5 -10q80 0 238 9t236 9q29 0 28 -32l-16 -179q0 6 2 21v-16.5t-1 -22.5t-4 -22.5t-10.5 -19.5t-17.5 -7q-18 0 -18 33q0 55 -22.5 91t-69 51t-84 19t-97.5 4q-39 0 -103.5 -3t-82.5 -3q-55 0 -76.5 -15.5t-21.5 -68.5v-401 q0 -41 10 -53.5t49 -12.5q41 0 107.5 -2t93.5 -2q98 0 150 25.5t69 103.5q4 25 24 25q18 0 19 -21q0 -29 -4 -87t-4 -86.5t4 -90t4 -90.5q0 -27 -17 -27q-23 0 -30.5 26t-12 56.5t-44.5 56t-117 25.5h-219q-86 0 -86 -51q0 -8 2 -18.5t2 -12.5v-333q0 -94 27.5 -128 t115.5 -34q94 0 152.5 4t143.5 18.5t147.5 53t103.5 100.5q10 18 22 18q16 0 17 -20q0 -104 -96.5 -186t-206.5 -82q-70 0 -207 11t-205 11q-51 0 -143.5 -9t-128.5 -9q-31 0 -33 20q0 18 63 35q76 20 76 166q0 16 -1 42.5t-1 37.5v805v10q0 113 -28.5 168t-62.5 57t-62.5 4 t-28.5 23zM563 1522q0 25 16.5 62.5t41 82.5t30.5 62q10 23 29 22q27 2 80 2q31 0 37 -27q0 -16 -39 -63t-77 -87t-40 -40q2 0 2 2q-49 -37 -65 -37q-14 0 -15 21z" />
<glyph unicode="&#xca;" horiz-adv-x="1134" d="M74 1354q0 27 45 26q43 0 186.5 -10t224.5 -10q80 0 238 9t236 9q29 0 28 -32l-16 -179q0 6 2 21v-16.5t-1 -22.5t-4 -22.5t-10.5 -19.5t-17.5 -7q-18 0 -18 33q0 55 -22.5 91t-69 51t-84 19t-97.5 4q-39 0 -103.5 -3t-82.5 -3q-55 0 -76.5 -15.5t-21.5 -68.5v-401 q0 -41 10 -53.5t49 -12.5q41 0 107.5 -2t93.5 -2q98 0 150 25.5t69 103.5q4 25 24 25q18 0 19 -21q0 -29 -4 -87t-4 -86.5t4 -90t4 -90.5q0 -27 -17 -27q-23 0 -30.5 26t-12 56.5t-44.5 56t-117 25.5h-219q-86 0 -86 -51q0 -8 2 -18.5t2 -12.5v-333q0 -94 27.5 -128 t115.5 -34q94 0 152.5 4t143.5 18.5t147.5 53t103.5 100.5q10 18 22 18q16 0 17 -20q0 -104 -96.5 -186t-206.5 -82q-70 0 -207 11t-205 11q-51 0 -143.5 -9t-128.5 -9q-31 0 -33 20q0 18 63 35q76 20 76 166q0 16 -1 42.5t-1 37.5v805v10q0 113 -28.5 168t-62.5 57t-62.5 4 t-28.5 23zM379 1530q0 8 10 23.5t23 27.5l12 14l28.5 38t34 45.5t31 36t35.5 29.5t33 9q39 0 68.5 -19.5t72.5 -71.5t47 -56q49 -50 51 -62q0 -16 -51 -37.5t-74 -21.5q-8 0 -31.5 23.5t-53 55t-31.5 33.5q-10 16 -21 17q-18 0 -54 -60.5t-56 -64.5q-18 0 -46 13.5t-28 27.5 z" />
<glyph unicode="&#xcb;" horiz-adv-x="1134" d="M74 1354q0 27 45 26q43 0 186.5 -10t224.5 -10q80 0 238 9t236 9q29 0 28 -32l-16 -179q0 6 2 21v-16.5t-1 -22.5t-4 -22.5t-10.5 -19.5t-17.5 -7q-18 0 -18 33q0 55 -22.5 91t-69 51t-84 19t-97.5 4q-39 0 -103.5 -3t-82.5 -3q-55 0 -76.5 -15.5t-21.5 -68.5v-401 q0 -41 10 -53.5t49 -12.5q41 0 107.5 -2t93.5 -2q98 0 150 25.5t69 103.5q4 25 24 25q18 0 19 -21q0 -29 -4 -87t-4 -86.5t4 -90t4 -90.5q0 -27 -17 -27q-23 0 -30.5 26t-12 56.5t-44.5 56t-117 25.5h-219q-86 0 -86 -51q0 -8 2 -18.5t2 -12.5v-333q0 -94 27.5 -128 t115.5 -34q94 0 152.5 4t143.5 18.5t147.5 53t103.5 100.5q10 18 22 18q16 0 17 -20q0 -104 -96.5 -186t-206.5 -82q-70 0 -207 11t-205 11q-51 0 -143.5 -9t-128.5 -9q-31 0 -33 20q0 18 63 35q76 20 76 166q0 16 -1 42.5t-1 37.5v805v10q0 113 -28.5 168t-62.5 57t-62.5 4 t-28.5 23zM354 1618v2q0 25 33 63.5t55 40.5q20 0 56.5 -39.5t36.5 -62.5t-31 -64.5t-51 -44.5q-25 0 -60 39t-39 66zM639 1618v2q0 23 34 62.5t54 41.5q20 0 56 -39.5t36 -62.5t-30.5 -64.5t-51.5 -44.5q-29 0 -62.5 39t-35.5 66z" />
<glyph unicode="&#xcc;" horiz-adv-x="684" d="M74 1354q0 23 32 22q35 0 104 -4t103 -4q39 0 113 5t113 5q16 0 20 -14q0 -18 -24 -33q-86 -33 -106.5 -81t-20.5 -165v-12v-747q0 -59 4 -97.5t18 -83.5t49 -72.5t88 -35.5q51 -8 51 -25q0 -25 -32 -24q-25 0 -72 4t-72 4q-53 0 -156.5 -4t-154.5 -4q-25 0 -27 18 q0 14 24 23.5t52.5 19.5t52 61.5t23.5 139.5v858q0 113 -24.5 160t-127.5 65q-29 4 -30 21zM174 1720q0 33 37 33q53 0 80 -2q18 0 28 -22q6 -16 42 -88t47 -113q0 -27 -15 -27q-22 0 -65 37l-35 35t-53.5 55.5t-44 52t-21.5 39.5z" />
<glyph unicode="&#xcd;" horiz-adv-x="684" d="M74 1354q0 23 32 22q35 0 104 -4t103 -4q39 0 113 5t113 5q16 0 20 -14q0 -18 -24 -33q-86 -33 -106.5 -81t-20.5 -165v-12v-747q0 -59 4 -97.5t18 -83.5t49 -72.5t88 -35.5q51 -8 51 -25q0 -25 -32 -24q-25 0 -72 4t-72 4q-53 0 -156.5 -4t-154.5 -4q-25 0 -27 18 q0 14 24 23.5t52.5 19.5t52 61.5t23.5 139.5v858q0 113 -24.5 160t-127.5 65q-29 4 -30 21zM270 1522q0 25 16.5 62.5t41 82.5t30.5 62q10 23 29 22q27 2 80 2q31 0 37 -27q0 -16 -39 -63t-77 -87t-40 -40q2 0 2 2q-49 -37 -65 -37q-14 0 -15 21z" />
<glyph unicode="&#xce;" horiz-adv-x="684" d="M74 1354q0 23 32 22q35 0 104 -4t103 -4q39 0 113 5t113 5q16 0 20 -14q0 -18 -24 -33q-86 -33 -106.5 -81t-20.5 -165v-12v-747q0 -59 4 -97.5t18 -83.5t49 -72.5t88 -35.5q51 -8 51 -25q0 -25 -32 -24q-25 0 -72 4t-72 4q-53 0 -156.5 -4t-154.5 -4q-25 0 -27 18 q0 14 24 23.5t52.5 19.5t52 61.5t23.5 139.5v858q0 113 -24.5 160t-127.5 65q-29 4 -30 21zM123 1528q0 8 10 23.5t23 29.5l12 12l28.5 38t34 45.5t31 36t35.5 29.5t33 9q39 0 68.5 -19.5t72.5 -71.5t47 -56q49 -50 51 -62q0 -16 -51 -37.5t-74 -21.5q-8 0 -31.5 23.5 t-53 55t-31.5 33.5q-10 16 -21 17q-18 0 -54 -60.5t-56 -64.5q-18 0 -46 13t-28 28z" />
<glyph unicode="&#xcf;" horiz-adv-x="684" d="M74 1354q0 23 32 22q35 0 104 -4t103 -4q39 0 113 5t113 5q16 0 20 -14q0 -18 -24 -33q-86 -33 -106.5 -81t-20.5 -165v-12v-747q0 -59 4 -97.5t18 -83.5t49 -72.5t88 -35.5q51 -8 51 -25q0 -25 -32 -24q-25 0 -72 4t-72 4q-53 0 -156.5 -4t-154.5 -4q-25 0 -27 18 q0 14 24 23.5t52.5 19.5t52 61.5t23.5 139.5v858q0 113 -24.5 160t-127.5 65q-29 4 -30 21zM115 1620v2q0 25 32.5 63.5t55.5 40.5q20 0 56 -39.5t36 -62t-31 -64.5t-51 -44q-25 0 -59.5 38.5t-38.5 65.5zM399 1620v2q0 23 34 62.5t54 41.5q20 0 56.5 -39.5t36.5 -62 t-31 -64.5t-51 -44q-29 0 -63 38.5t-36 65.5z" />
<glyph unicode="&#xd0;" horiz-adv-x="1497" d="M72 1354q0 18 28 18q16 0 46 -2t54.5 -3t47.5 -1q63 0 190 10t191 10q362 0 563 -161q113 -88 175.5 -223.5t62.5 -282.5q0 -324 -200 -527.5t-525 -203.5q-53 0 -156 7t-156 7q-59 0 -243 -18q-31 0 -33 20q0 12 21.5 21.5t46 19.5t46 54t21.5 120v51v406h-109 q-29 0 -28.5 34.5t28.5 34.5h109v383q0 88 -27.5 135.5t-62.5 54.5t-62.5 13t-27.5 23zM406 201q0 -47 16 -73t59 -40q131 -45 260 -45q256 0 397.5 166t141.5 424q0 305 -181 498.5t-483 193.5q-143 0 -186 -33q-25 -20 -24 -84v-463h245q27 0 27 -34.5t-27 -34.5h-245 v-475z" />
<glyph unicode="&#xd1;" horiz-adv-x="1533" d="M57 1354q0 23 19 22q31 0 90 -1t90 -1q27 0 51 -28l920 -1043q16 -23 26 -22q12 0 13 34v478q0 31 2 94t2 96q0 129 -23 215q-14 51 -50 81t-70.5 36t-63.5 15t-31 24q0 20 21 20q33 0 98.5 -5t97.5 -5h60q23 0 65.5 6t63.5 6q27 0 26 -22q0 -8 -44 -25.5t-52 -38.5 q-27 -49 -27 -172q0 -23 1 -68.5t1 -68.5v-643q0 -4 1.5 -28.5t2.5 -60.5t1 -69q0 -199 -37 -198q-8 0 -16.5 4t-11.5 7t-9 13t-8 12l-844 963q-12 16 -23 16q-20 0 -20 -30v-15v-676v-28q0 -68 6 -102.5t39 -67.5t98 -43q33 -4 33 -27q0 -20 -20 -20q-18 0 -105.5 7 t-140.5 7q-23 0 -67 -6t-66.5 -6t-28.5 14v2q-2 2 -2 4q0 12 27.5 22.5t59.5 25t59.5 77t27.5 166.5v647q0 61 -9 118.5t-31.5 118t-68 101.5t-106.5 49q-25 4 -27 19zM494 1565q66 131 168 131q47 0 132 -30t130 -30q47 0 80 39q6 6 10 6q27 0 28 -14q0 -49 -57 -90 t-108 -41q-45 0 -130 28.5t-133 28.5q-33 0 -46 -8t-22 -21.5t-24 -19.5q-29 0 -28 21z" />
<glyph unicode="&#xd2;" horiz-adv-x="1579" d="M70 684q0 309 208.5 509t518.5 200q307 0 510.5 -191.5t203.5 -496.5q0 -317 -201.5 -524.5t-516.5 -207.5q-324 0 -523.5 194.5t-199.5 516.5zM227 750q0 -135 42 -262.5t119 -229.5t195.5 -164.5t258.5 -62.5q240 0 381 179t141 433q0 276 -180 480t-453 204 q-242 0 -373 -164.5t-131 -412.5zM604 1720q0 33 37 33q53 0 80 -2q18 0 29 -22q6 -16 41.5 -88t46.5 -113q0 -27 -15 -27q-22 0 -65 37l-35 35t-53.5 55.5t-44 52t-21.5 39.5z" />
<glyph unicode="&#xd3;" horiz-adv-x="1579" d="M70 684q0 309 208.5 509t518.5 200q307 0 510.5 -191.5t203.5 -496.5q0 -317 -201.5 -524.5t-516.5 -207.5q-324 0 -523.5 194.5t-199.5 516.5zM227 750q0 -135 42 -262.5t119 -229.5t195.5 -164.5t258.5 -62.5q240 0 381 179t141 433q0 276 -180 480t-453 204 q-242 0 -373 -164.5t-131 -412.5zM741 1522q0 25 16.5 62.5t41 82.5t30.5 62q10 23 29 22q27 2 80 2q31 0 37 -27q0 -16 -39 -63t-77 -87t-40 -40q2 0 2 2q-49 -37 -65 -37q-14 0 -15 21z" />
<glyph unicode="&#xd4;" horiz-adv-x="1579" d="M70 684q0 309 208.5 509t518.5 200q307 0 510.5 -191.5t203.5 -496.5q0 -317 -201.5 -524.5t-516.5 -207.5q-324 0 -523.5 194.5t-199.5 516.5zM227 750q0 -135 42 -262.5t119 -229.5t195.5 -164.5t258.5 -62.5q240 0 381 179t141 433q0 276 -180 480t-453 204 q-242 0 -373 -164.5t-131 -412.5zM567 1528q0 8 10.5 23.5t22.5 29.5l12 12q6 8 29 38t34 45.5t30.5 36t36 29.5t32.5 9q39 0 68.5 -19.5t72.5 -71.5t48 -56q49 -50 51 -62q0 -16 -51.5 -37.5t-73.5 -21.5q-8 0 -31.5 23.5t-53.5 55t-32 33.5q-10 16 -20 17q-18 0 -54 -60.5 t-57 -64.5q-18 0 -46 13t-28 28z" />
<glyph unicode="&#xd5;" horiz-adv-x="1579" d="M70 684q0 309 208.5 509t518.5 200q307 0 510.5 -191.5t203.5 -496.5q0 -317 -201.5 -524.5t-516.5 -207.5q-324 0 -523.5 194.5t-199.5 516.5zM227 750q0 -135 42 -262.5t119 -229.5t195.5 -164.5t258.5 -62.5q240 0 381 179t141 433q0 276 -180 480t-453 204 q-242 0 -373 -164.5t-131 -412.5zM514 1567q66 131 168 131q47 0 132 -30t130 -30q47 0 80 39q6 6 10 6q27 0 29 -14q0 -49 -57.5 -90t-108.5 -41q-45 0 -130 28.5t-132 28.5q-33 0 -46.5 -8t-22.5 -21.5t-23 -19.5q-29 0 -29 21z" />
<glyph unicode="&#xd6;" horiz-adv-x="1579" d="M70 684q0 309 208.5 509t518.5 200q307 0 510.5 -191.5t203.5 -496.5q0 -317 -201.5 -524.5t-516.5 -207.5q-324 0 -523.5 194.5t-199.5 516.5zM227 750q0 -135 42 -262.5t119 -229.5t195.5 -164.5t258.5 -62.5q240 0 381 179t141 433q0 276 -180 480t-453 204 q-242 0 -373 -164.5t-131 -412.5zM530 1620v2q0 25 33 63.5t55 40.5q20 0 56.5 -39.5t36.5 -62t-31 -64.5t-51 -44q-25 0 -60 38.5t-39 65.5zM815 1620v2q0 23 34 62.5t54 41.5q20 0 56 -39.5t36 -62t-30.5 -64.5t-51.5 -44q-29 0 -62.5 38.5t-35.5 65.5z" />
<glyph unicode="&#xd7;" d="M127 371l328 325l-326 326l57 57l326 -325l326 327l59 -59l-328 -326l328 -325l-59 -60l-326 328l-326 -328z" />
<glyph unicode="&#xd8;" horiz-adv-x="1581" d="M70 682q0 309 209.5 510t519.5 201q237 0 442 -131l113 129q8 4 12 4q14 0 23.5 -10.5t9.5 -24.5q0 -6 -2 -8q-10 -23 -28.5 -44.5t-44.5 -48t-36 -38.5q223 -207 223 -516q0 -315 -201.5 -523.5t-514.5 -208.5q-272 0 -469 140q-4 -4 -21.5 -28t-32 -40t-31 -33.5 t-26.5 -19.5q-39 0 -39 33q0 16 19.5 40.5t48 53t35.5 37.5q-209 201 -209 526zM231 748q0 -279 148 -480l774 893q-100 86 -197.5 126t-224.5 40q-242 0 -371 -166t-129 -413zM418 219q100 -98 198.5 -144t229.5 -46q106 0 210.5 51t174.5 135q131 162 131 428 q0 272 -168 469z" />
<glyph unicode="&#xd9;" horiz-adv-x="1591" d="M74 1350q8 20 39 20q37 0 109.5 -3t109.5 -3q84 0 125 4q-61 -6 -78 -6l-10 2q0 8 100 8q61 0 61 -14q0 -23 -30 -27q-98 -20 -99 -164q0 -16 1 -45.5t1 -42.5v-504q0 -256 80 -368q55 -78 155.5 -117t209.5 -39q258 0 373.5 131t115.5 393v476v36q0 88 -19.5 144.5 t-46 75t-54 25.5t-47 11.5t-19.5 18.5q0 20 20 20q129 -14 166 -14q166 6 168 6q6 0 11.5 -5t7.5 -9l2 -4q0 -14 -21 -23q-98 -39 -98 -198q0 -14 1 -40t1 -38v-459q0 -272 -109 -422q-76 -100 -205.5 -151.5t-267.5 -51.5q-281 0 -428 150.5t-147 433.5v510l-2 55 q-2 63 -16.5 106.5t-34 60t-41 25.5t-41 9t-31.5 6t-12 21zM643 1720q0 33 37 33q53 0 80 -2q18 0 28 -22q6 -16 42 -88t47 -113q0 -27 -15 -27q-22 0 -65 37l-35 35t-53.5 55.5t-44 52t-21.5 39.5z" />
<glyph unicode="&#xda;" horiz-adv-x="1591" d="M74 1350q8 20 39 20q37 0 109.5 -3t109.5 -3q84 0 125 4q-61 -6 -78 -6l-10 2q0 8 100 8q61 0 61 -14q0 -23 -30 -27q-98 -20 -99 -164q0 -16 1 -45.5t1 -42.5v-504q0 -256 80 -368q55 -78 155.5 -117t209.5 -39q258 0 373.5 131t115.5 393v476v36q0 88 -19.5 144.5 t-46 75t-54 25.5t-47 11.5t-19.5 18.5q0 20 20 20q129 -14 166 -14q166 6 168 6q6 0 11.5 -5t7.5 -9l2 -4q0 -14 -21 -23q-98 -39 -98 -198q0 -14 1 -40t1 -38v-459q0 -272 -109 -422q-76 -100 -205.5 -151.5t-267.5 -51.5q-281 0 -428 150.5t-147 433.5v510l-2 55 q-2 63 -16.5 106.5t-34 60t-41 25.5t-41 9t-31.5 6t-12 21zM752 1522q0 25 16 62.5t41 82.5t31 62q10 23 28 22q27 2 80 2q31 0 37 -27q0 -16 -39 -63t-77 -87t-40 -40q2 0 2 2q-49 -37 -65 -37q-14 0 -14 21z" />
<glyph unicode="&#xdb;" horiz-adv-x="1591" d="M74 1350q8 20 39 20q37 0 109.5 -3t109.5 -3q84 0 125 4q-61 -6 -78 -6l-10 2q0 8 100 8q61 0 61 -14q0 -23 -30 -27q-98 -20 -99 -164q0 -16 1 -45.5t1 -42.5v-504q0 -256 80 -368q55 -78 155.5 -117t209.5 -39q258 0 373.5 131t115.5 393v476v36q0 88 -19.5 144.5 t-46 75t-54 25.5t-47 11.5t-19.5 18.5q0 20 20 20q129 -14 166 -14q166 6 168 6q6 0 11.5 -5t7.5 -9l2 -4q0 -14 -21 -23q-98 -39 -98 -198q0 -14 1 -40t1 -38v-459q0 -272 -109 -422q-76 -100 -205.5 -151.5t-267.5 -51.5q-281 0 -428 150.5t-147 433.5v510l-2 55 q-2 63 -16.5 106.5t-34 60t-41 25.5t-41 9t-31.5 6t-12 21zM610 1528q0 8 10.5 23.5t22.5 29.5l12 12q6 8 29 38t34 45.5t30.5 36t36 29.5t32.5 9q39 0 68.5 -19.5t72.5 -71.5t48 -56q49 -50 51 -62q0 -16 -51.5 -37.5t-73.5 -21.5q-8 0 -31.5 23.5t-53.5 55t-32 33.5 q-10 16 -20 17q-18 0 -54 -60.5t-57 -64.5q-18 0 -46 13t-28 28z" />
<glyph unicode="&#xdc;" horiz-adv-x="1591" d="M74 1350q8 20 39 20q37 0 109.5 -3t109.5 -3q84 0 125 4q-61 -6 -78 -6l-10 2q0 8 100 8q61 0 61 -14q0 -23 -30 -27q-98 -20 -99 -164q0 -16 1 -45.5t1 -42.5v-504q0 -256 80 -368q55 -78 155.5 -117t209.5 -39q258 0 373.5 131t115.5 393v476v36q0 88 -19.5 144.5 t-46 75t-54 25.5t-47 11.5t-19.5 18.5q0 20 20 20q129 -14 166 -14q166 6 168 6q6 0 11.5 -5t7.5 -9l2 -4q0 -14 -21 -23q-98 -39 -98 -198q0 -14 1 -40t1 -38v-459q0 -272 -109 -422q-76 -100 -205.5 -151.5t-267.5 -51.5q-281 0 -428 150.5t-147 433.5v510l-2 55 q-2 63 -16.5 106.5t-34 60t-41 25.5t-41 9t-31.5 6t-12 21zM582 1620v2q0 25 32.5 63.5t55.5 40.5q20 0 56 -39.5t36 -62t-31 -64.5t-51 -44q-25 0 -59.5 38.5t-38.5 65.5zM866 1620v2q0 23 34 62.5t54 41.5q20 0 56.5 -39.5t36.5 -62t-31 -64.5t-51 -44q-29 0 -63 38.5 t-36 65.5z" />
<glyph unicode="&#xdd;" horiz-adv-x="1196" d="M-41 1356q0 23 31 22q29 0 89 -4t91 -4q43 0 125 3t125 3q27 0 29 -18q0 -10 -44.5 -31.5t-46.5 -54.5q0 -20 7.5 -43t15.5 -36t24.5 -36.5t22.5 -34.5l209 -329q20 -35 31 -35q12 0 30 30l146 220q119 184 119 227q0 45 -37 64.5t-75 28.5t-38 26q0 18 25 18 q113 -10 135 -10q39 0 118.5 3t120.5 3q27 0 27 -18q0 -12 -25 -23q-20 -8 -38.5 -18.5t-32 -18.5t-29.5 -24.5t-23.5 -23.5t-23.5 -28.5t-20.5 -28.5t-22.5 -34t-23 -33l-243 -362q-37 -53 -49.5 -90.5t-12.5 -100.5v-327v-62q0 -72 23.5 -106.5t105.5 -42.5q31 0 31 -21 q0 -23 -27 -22q-35 0 -106.5 7t-106.5 7q-29 0 -102.5 -5t-112.5 -5q-23 0 -22 18q0 16 25.5 23.5t55 12.5t55.5 45t26 114v57v297q0 98 -52 180l-280 443q-43 74 -94.5 115.5t-126.5 45.5q-29 0 -29 17zM592 1522q0 25 16.5 62.5t41 82.5t30.5 62q10 23 29 22q27 2 79 2 q31 0 37 -27q0 -16 -38.5 -63t-76.5 -87t-40 -40q2 0 2 2q-49 -37 -66 -37q-14 0 -14 21z" />
<glyph unicode="&#xde;" horiz-adv-x="1028" d="M74 1354q0 23 32 22q35 0 104 -4t103 -4q37 0 110 5t109 5q27 0 27 -22q0 -18 -23.5 -26.5t-52 -12.5t-52 -30.5t-25.5 -76.5q0 -4 -2.5 -18t-2.5 -23q0 -20 11 -20q23 0 68.5 6t70.5 6q117 0 222.5 -35.5t182 -121.5t76.5 -207q0 -162 -125 -278t-289 -116 q-35 0 -100 11.5t-65 31.5q0 6 12 15q4 0 7 -2t8 -3t26.5 -3t58.5 -2q141 0 229.5 78.5t88.5 218.5q0 150 -120 244.5t-274 94.5q-45 0 -61 -14t-18 -57l-2 -29v-616q0 -20 -1 -62.5t-1 -62.5q0 -106 37.5 -155.5t140.5 -55.5q31 0 30 -19q0 -27 -34 -26q-23 0 -68 4 q-66 0 -199 -3t-200 -3q-25 0 -25 18q0 16 33 27q43 6 72.5 32.5t42 70.5t16.5 83t4 92v84v711q0 115 -24.5 162t-127.5 63q-29 4 -30 23z" />
<glyph unicode="&#xdf;" horiz-adv-x="1013" d="M55 737q0 72 84 72q12 0 35 -1t33 -1q0 100 25.5 205.5t74.5 203t136 160t198 62.5q119 0 200 -91.5t81 -213.5q0 -88 -37 -160t-80 -107t-82 -63.5t-41 -40.5q0 -29 52 -84t114.5 -113.5t115 -142.5t52.5 -162q0 -123 -85 -205t-208 -82q-119 0 -242 62q-14 76 -14 198 q0 51 22 52q18 0 29 -37q16 -84 78.5 -154.5t142.5 -70.5q70 0 108 43t38 114q0 80 -55.5 166t-122 145.5t-122 120t-55.5 93.5q0 25 39 60.5t85 72t85 109.5t39 161q0 96 -57 172t-150 76q-72 0 -121 -41t-70.5 -109.5t-29.5 -130t-8 -129.5v-219v-571q0 -4 2 -32t2 -46 q0 -84 -33 -84q-14 0 -47 4q-23 0 -67.5 -5t-67.5 -5q-41 0 -41 20q2 16 31 22.5t57.5 34t28.5 95.5v563h-131q-16 0 -21 14z" />
<glyph unicode="&#xe0;" horiz-adv-x="835" d="M78 154q0 193 305 260q43 8 156 26v72q0 63 -5.5 103t-23.5 83t-61 63.5t-111 20.5q-57 0 -94 -28.5t-37 -81.5q0 -20 10 -56t10 -55q0 -16 -20 -16q-45 0 -86 18.5t-41 57.5q0 70 96 144.5t213 74.5q123 0 205 -57.5t82 -174.5v-391q0 -172 98 -172q8 0 23.5 3t21.5 3 q16 0 17 -20q-10 -18 -56.5 -32.5t-74.5 -14.5q-90 0 -152 100q-143 -111 -270 -111q-86 0 -145.5 48.5t-59.5 132.5zM211 186q0 -70 42 -110.5t109 -40.5q106 0 143.5 60.5t37.5 166.5q0 25 -2 72t-2 67q-78 -8 -142.5 -25.5t-125 -66.5t-60.5 -123zM219 1169q0 33 37 33 q53 0 80 -2q18 0 29 -22q6 -16 41.5 -88t46.5 -113q0 -27 -15 -27q-22 0 -65 37l-35 35t-53.5 55.5t-44 52t-21.5 39.5z" />
<glyph unicode="&#xe1;" horiz-adv-x="835" d="M78 154q0 193 305 260q43 8 156 26v72q0 63 -5.5 103t-23.5 83t-61 63.5t-111 20.5q-57 0 -94 -28.5t-37 -81.5q0 -20 10 -56t10 -55q0 -16 -20 -16q-45 0 -86 18.5t-41 57.5q0 70 96 144.5t213 74.5q123 0 205 -57.5t82 -174.5v-391q0 -172 98 -172q8 0 23.5 3t21.5 3 q16 0 17 -20q-10 -18 -56.5 -32.5t-74.5 -14.5q-90 0 -152 100q-143 -111 -270 -111q-86 0 -145.5 48.5t-59.5 132.5zM211 186q0 -70 42 -110.5t109 -40.5q106 0 143.5 60.5t37.5 166.5q0 25 -2 72t-2 67q-78 -8 -142.5 -25.5t-125 -66.5t-60.5 -123zM383 969 q0 25 16.5 62.5t41 82.5t30.5 62q10 23 29 22q27 2 80 2q31 0 36 -26q0 -16 -38.5 -63.5t-76.5 -87.5t-40 -40q2 0 2 2q-49 -37 -66 -37q-14 0 -14 21z" />
<glyph unicode="&#xe2;" horiz-adv-x="835" d="M78 154q0 193 305 260q43 8 156 26v72q0 63 -5.5 103t-23.5 83t-61 63.5t-111 20.5q-57 0 -94 -28.5t-37 -81.5q0 -20 10 -56t10 -55q0 -16 -20 -16q-45 0 -86 18.5t-41 57.5q0 70 96 144.5t213 74.5q123 0 205 -57.5t82 -174.5v-391q0 -172 98 -172q8 0 23.5 3t21.5 3 q16 0 17 -20q-10 -18 -56.5 -32.5t-74.5 -14.5q-90 0 -152 100q-143 -111 -270 -111q-86 0 -145.5 48.5t-59.5 132.5zM193 989q0 8 10 23.5t22 27.5l13 15q6 8 28.5 37.5t33.5 45t30.5 36t36 29.5t32.5 9q39 0 69 -19t73 -71.5t47 -56.5q49 -49 51 -61q0 -16 -51 -38 t-74 -22q-8 0 -31.5 23.5t-53.5 55.5t-32 34q-10 16 -20 16q-18 0 -54 -60.5t-57 -64.5q-18 0 -45.5 13.5t-27.5 27.5zM211 186q0 -70 42 -110.5t109 -40.5q106 0 143.5 60.5t37.5 166.5q0 25 -2 72t-2 67q-78 -8 -142.5 -25.5t-125 -66.5t-60.5 -123z" />
<glyph unicode="&#xe3;" horiz-adv-x="835" d="M78 154q0 193 305 260q43 8 156 26v72q0 63 -5.5 103t-23.5 83t-61 63.5t-111 20.5q-57 0 -94 -28.5t-37 -81.5q0 -20 10 -56t10 -55q0 -16 -20 -16q-45 0 -86 18.5t-41 57.5q0 70 96 144.5t213 74.5q123 0 205 -57.5t82 -174.5v-391q0 -172 98 -172q8 0 23.5 3t21.5 3 q16 0 17 -20q-10 -18 -56.5 -32.5t-74.5 -14.5q-90 0 -152 100q-143 -111 -270 -111q-86 0 -145.5 48.5t-59.5 132.5zM141 1012q66 131 168 131q47 0 132 -30t130 -30q47 0 80 39q6 6 11 6q27 0 28 -14q0 -49 -57.5 -90t-108.5 -41q-45 0 -130 28.5t-132 28.5q-33 0 -46 -8 t-22.5 -21.5t-23.5 -19.5q-29 0 -29 21zM211 186q0 -70 42 -110.5t109 -40.5q106 0 143.5 60.5t37.5 166.5q0 25 -2 72t-2 67q-78 -8 -142.5 -25.5t-125 -66.5t-60.5 -123z" />
<glyph unicode="&#xe4;" horiz-adv-x="835" d="M78 154q0 193 305 260q43 8 156 26v72q0 63 -5.5 103t-23.5 83t-61 63.5t-111 20.5q-57 0 -94 -28.5t-37 -81.5q0 -20 10 -56t10 -55q0 -16 -20 -16q-45 0 -86 18.5t-41 57.5q0 70 96 144.5t213 74.5q123 0 205 -57.5t82 -174.5v-391q0 -172 98 -172q8 0 23.5 3t21.5 3 q16 0 17 -20q-10 -18 -56.5 -32.5t-74.5 -14.5q-90 0 -152 100q-143 -111 -270 -111q-86 0 -145.5 48.5t-59.5 132.5zM186 1067v2q0 25 33 63.5t55 41.5q20 0 56.5 -40t36.5 -62.5t-31 -64.5t-51 -44q-25 0 -60 38.5t-39 65.5zM211 186q0 -70 42 -110.5t109 -40.5 q106 0 143.5 60.5t37.5 166.5q0 25 -2 72t-2 67q-78 -8 -142.5 -25.5t-125 -66.5t-60.5 -123zM471 1067v2q0 23 34 62.5t54 42.5q20 0 56 -40t36 -62.5t-30.5 -64.5t-51.5 -44q-29 0 -62.5 38.5t-35.5 65.5z" />
<glyph unicode="&#xe5;" horiz-adv-x="835" d="M78 154q0 193 305 260q43 8 156 26v72q0 63 -5.5 103t-23.5 83t-61 63.5t-111 20.5q-57 0 -94 -28.5t-37 -81.5q0 -20 10 -56t10 -55q0 -16 -20 -16q-45 0 -86 18.5t-41 57.5q0 70 96 144.5t213 74.5q123 0 205 -57.5t82 -174.5v-391q0 -172 98 -172q8 0 23.5 3t21.5 3 q16 0 17 -20q-10 -18 -56.5 -32.5t-74.5 -14.5q-90 0 -152 100q-143 -111 -270 -111q-86 0 -145.5 48.5t-59.5 132.5zM211 186q0 -70 42 -110.5t109 -40.5q106 0 143.5 60.5t37.5 166.5q0 25 -2 72t-2 67q-78 -8 -142.5 -25.5t-125 -66.5t-60.5 -123zM225 1063q0 57 50.5 95 t109.5 38q63 0 116.5 -36t53.5 -97q0 -59 -53 -95t-117 -36q-59 0 -109.5 37t-50.5 94zM297 1065q0 -37 25.5 -65.5t62.5 -30.5q41 0 69.5 28.5t28.5 67.5q0 37 -27.5 65.5t-64.5 28.5q-39 0 -66.5 -27.5t-27.5 -66.5z" />
<glyph unicode="&#xe6;" horiz-adv-x="1296" d="M78 154q0 53 20.5 95t62.5 70.5t82 48t101.5 34t97 20.5t93.5 14v84q0 61 -6.5 100t-25 80t-61.5 61.5t-110 20.5q-49 0 -85 -30.5t-36 -79.5q0 -27 18 -101q0 -29 -20 -28q-35 0 -81 18.5t-46 44.5q0 100 100.5 167t204.5 67q180 0 266 -121q117 121 267 121 q135 0 235 -109.5t100 -198.5q0 -31 -47 -30q-90 0 -269 -5t-269 -5q4 -162 90 -290t239 -128q68 0 120 23.5t87 52t47 32.5q16 0 17 -14q0 -47 -108.5 -121t-241.5 -74q-170 0 -302 164q-168 -164 -335 -164q-92 0 -148.5 45t-56.5 136zM211 186q0 -63 43 -108t106 -45 q76 0 125.5 44t49.5 118v206q-324 -41 -324 -215zM674 549q55 0 167.5 1t170.5 1q80 0 80 41q0 59 -61.5 132t-151.5 73q-88 0 -146.5 -78t-58.5 -170z" />
<glyph unicode="&#xe7;" horiz-adv-x="776" d="M55 379q0 180 124 320.5t302 140.5q59 0 145.5 -17.5t86.5 -56.5q0 -18 3 -54t3 -55q0 -49 -23 -51q-2 0 -17 17.5t-40 43t-57.5 51t-77.5 43t-92 17.5q-111 0 -166.5 -100t-55.5 -219q0 -154 91.5 -277t238.5 -123q61 0 108.5 22.5t80 50.5t51.5 32q16 0 16 -12 q0 -70 -130 -125.5t-216 -55.5q-164 0 -269.5 120t-105.5 288zM342 -438q0 6 23.5 21.5t46 40t22.5 54.5q0 41 -43 70t-43 43q0 8 6 15.5t11.5 11.5t16.5 11t13 7q29 37 45 41q39 0 70 -45t33 -86q0 -74 -52.5 -131t-125.5 -68q-23 0 -23 15z" />
<glyph unicode="&#xe8;" horiz-adv-x="813" d="M55 403q0 166 110.5 301.5t270.5 135.5q129 0 230.5 -99.5t111.5 -210.5q0 -37 -65 -36q-25 2 -72 2t-72 2h-376q0 -102 33.5 -196.5t110.5 -162t181 -67.5q35 0 73 11t68.5 25.5t55 30t39 26.5t16.5 11q14 0 14 -16q0 -57 -124.5 -122t-219.5 -65q-170 0 -277.5 129 t-107.5 301zM197 551h338h22q57 0 57 33q0 84 -68.5 148.5t-152.5 64.5q-86 0 -136 -76t-60 -170zM223 1169q0 33 37 33q53 0 80 -2q18 0 29 -22q6 -16 41.5 -88t46.5 -113q0 -27 -15 -27q-22 0 -65 37l-35 35t-53.5 55.5t-44 52t-21.5 39.5z" />
<glyph unicode="&#xe9;" horiz-adv-x="813" d="M55 403q0 166 110.5 301.5t270.5 135.5q129 0 230.5 -99.5t111.5 -210.5q0 -37 -65 -36q-25 2 -72 2t-72 2h-376q0 -102 33.5 -196.5t110.5 -162t181 -67.5q35 0 73 11t68.5 25.5t55 30t39 26.5t16.5 11q14 0 14 -16q0 -57 -124.5 -122t-219.5 -65q-170 0 -277.5 129 t-107.5 301zM197 551h338h22q57 0 57 33q0 84 -68.5 148.5t-152.5 64.5q-86 0 -136 -76t-60 -170zM371 969q0 25 16 62.5t41 82.5t31 62q10 23 28 22q27 2 80 2q31 0 37 -26q0 -16 -39 -63.5t-76.5 -87.5t-39.5 -40q2 0 2 2q-49 -37 -66 -37q-14 0 -14 21z" />
<glyph unicode="&#xea;" horiz-adv-x="813" d="M55 403q0 166 110.5 301.5t270.5 135.5q129 0 230.5 -99.5t111.5 -210.5q0 -37 -65 -36q-25 2 -72 2t-72 2h-376q0 -102 33.5 -196.5t110.5 -162t181 -67.5q35 0 73 11t68.5 25.5t55 30t39 26.5t16.5 11q14 0 14 -16q0 -57 -124.5 -122t-219.5 -65q-170 0 -277.5 129 t-107.5 301zM197 551h338h22q57 0 57 33q0 84 -68.5 148.5t-152.5 64.5q-86 0 -136 -76t-60 -170zM215 989q0 8 10.5 23.5t22.5 27.5l12 15q6 8 28.5 37.5t34 45t31 36t36 29.5t32.5 9q39 0 68.5 -19t72.5 -71.5t47 -56.5q50 -49 52 -61q0 -16 -51.5 -38t-73.5 -22 q-8 0 -32 23.5t-53.5 55.5t-31.5 34q-10 16 -21 16q-18 0 -54 -60.5t-56 -64.5q-18 0 -46 13.5t-28 27.5z" />
<glyph unicode="&#xeb;" horiz-adv-x="813" d="M55 403q0 166 110.5 301.5t270.5 135.5q129 0 230.5 -99.5t111.5 -210.5q0 -37 -65 -36q-25 2 -72 2t-72 2h-376q0 -102 33.5 -196.5t110.5 -162t181 -67.5q35 0 73 11t68.5 25.5t55 30t39 26.5t16.5 11q14 0 14 -16q0 -57 -124.5 -122t-219.5 -65q-170 0 -277.5 129 t-107.5 301zM197 551h338h22q57 0 57 33q0 84 -68.5 148.5t-152.5 64.5q-86 0 -136 -76t-60 -170zM203 1067v2q0 25 32.5 63.5t55.5 41.5q20 0 56 -40t36 -62.5t-30.5 -64.5t-51.5 -44q-25 0 -59.5 38.5t-38.5 65.5zM487 1067v2q0 23 34 62.5t54 42.5q20 0 56.5 -40 t36.5 -62.5t-31 -64.5t-51 -44q-29 0 -63 38.5t-36 65.5z" />
<glyph unicode="&#xec;" horiz-adv-x="505" d="M57 1169q0 33 37 33q53 0 80 -2q18 0 29 -22q6 -16 42 -88t46 -113q0 -27 -15 -27q-22 0 -65 37l-35 35t-53.5 55.5t-44 52t-21.5 39.5zM59 745q4 14 52 27q98 37 143 64q35 27 51 26q6 0 8 -2q8 -8 9 -43q0 -8 -1.5 -54t-1.5 -87v-510q0 -76 24 -98.5t103 -34.5 q35 -6 35 -23q0 -20 -26 -20q-23 0 -68 3t-68 3q-33 0 -102.5 -4t-101.5 -4q-27 0 -27 18q0 8 23.5 19.5t47 42t23.5 90.5v436q0 68 -18.5 100.5t-75.5 32.5q-29 0 -29 18z" />
<glyph unicode="&#xed;" horiz-adv-x="505" d="M59 745q4 14 52 27q98 37 143 64q35 27 51 26q6 0 8 -2q8 -8 9 -43q0 -8 -1.5 -54t-1.5 -87v-510q0 -76 24 -98.5t103 -34.5q35 -6 35 -23q0 -20 -26 -20q-23 0 -68 3t-68 3q-33 0 -102.5 -4t-101.5 -4q-27 0 -27 18q0 8 23.5 19.5t47 42t23.5 90.5v436q0 68 -18.5 100.5 t-75.5 32.5q-29 0 -29 18zM180 969q0 25 16.5 62.5t41 82.5t30.5 62q10 23 29 22q27 2 80 2q31 0 37 -26q0 -16 -39 -63.5t-77 -87.5t-40 -40q2 0 2 2q-49 -37 -65 -37q-14 0 -15 21z" />
<glyph unicode="&#xee;" horiz-adv-x="505" d="M12 989q0 8 10.5 23.5t22.5 27.5l12 15q6 8 29 37.5t34 45t30.5 36t36 29.5t32.5 9q39 0 68.5 -19t72.5 -71.5t48 -56.5q49 -49 51 -61q0 -16 -51.5 -38t-73.5 -22q-8 0 -31.5 23.5t-53.5 55.5t-32 34q-10 16 -20 16q-18 0 -54.5 -60.5t-56.5 -64.5q-18 0 -46 13.5 t-28 27.5zM59 745q4 14 52 27q98 37 143 64q35 27 51 26q6 0 8 -2q8 -8 9 -43q0 -8 -1.5 -54t-1.5 -87v-510q0 -76 24 -98.5t103 -34.5q35 -6 35 -23q0 -20 -26 -20q-23 0 -68 3t-68 3q-33 0 -102.5 -4t-101.5 -4q-27 0 -27 18q0 8 23.5 19.5t47 42t23.5 90.5v436 q0 68 -18.5 100.5t-75.5 32.5q-29 0 -29 18z" />
<glyph unicode="&#xef;" horiz-adv-x="505" d="M4 1067v2q0 25 33 63.5t55 41.5q20 0 56 -40t36 -62.5t-30.5 -64.5t-51.5 -44q-25 0 -59.5 38.5t-38.5 65.5zM59 745q4 14 52 27q98 37 143 64q35 27 51 26q6 0 8 -2q8 -8 9 -43q0 -8 -1.5 -54t-1.5 -87v-510q0 -76 24 -98.5t103 -34.5q35 -6 35 -23q0 -20 -26 -20 q-23 0 -68 3t-68 3q-33 0 -102.5 -4t-101.5 -4q-27 0 -27 18q0 8 23.5 19.5t47 42t23.5 90.5v436q0 68 -18.5 100.5t-75.5 32.5q-29 0 -29 18zM289 1067v2q0 23 33.5 62.5t54.5 42.5q20 0 56 -40t36 -62.5t-30.5 -64.5t-51.5 -44q-29 0 -62.5 38.5t-35.5 65.5z" />
<glyph unicode="&#xf0;" horiz-adv-x="991" d="M55 401q0 178 127 308.5t305 130.5q138 0 236 -80q-78 250 -346 438l-201 -129q-37 -23 -41 -22q-8 0 -18.5 12t-10.5 22q0 16 39 35l181 115q-109 72 -236 96q-25 6 -24 25q0 29 26 28q82 0 293 -108l217 137q35 20 37 21q8 -2 16.5 -12.5t8.5 -20.5q0 -12 -29 -31 l-197 -125q225 -141 362.5 -360t137.5 -471q0 -188 -130 -312.5t-321 -124.5q-184 0 -308 122t-124 306zM197 453q0 -100 34.5 -197.5t112.5 -168.5t182 -71q135 0 202 98.5t67 239.5q0 182 -83 314.5t-251 132.5q-131 0 -197.5 -105.5t-66.5 -242.5z" />
<glyph unicode="&#xf1;" horiz-adv-x="1120" d="M57 745q0 16 27 21q92 16 221 88q10 6 23 6q18 0 18 -33q-6 -29 -6 -57q0 -16 2 -46t2 -44q133 160 279 160q82 0 154.5 -42t113.5 -112q49 -86 49 -252v-237q0 -31 2 -51.5t9 -45t25.5 -40t47.5 -19.5q68 -8 70 -23q0 -25 -23 -24q-33 0 -99.5 3t-99.5 3q-47 -6 -92 -6 q-63 0 -65 14q0 12 14 21.5t30.5 14.5t31 22.5t14.5 48.5q0 10 -2 35.5t-2 39.5v267q0 127 -59.5 209t-184.5 82q-74 0 -143.5 -46.5t-69.5 -115.5v-381q0 -92 26.5 -129t114.5 -43q10 -2 18.5 -7.5t12.5 -9.5l2 -4q0 -18 -22 -18q-16 0 -49 3t-50 3q-45 0 -136 -3t-136 -3 q-23 0 -23 14q0 8 27 20.5t52.5 49.5t25.5 106v424q0 41 -4 63.5t-22.5 41t-55.5 18.5q-6 0 -20.5 -1t-22.5 -1q-23 0 -25 16zM287 1012q66 131 168 131q47 0 132 -30t130 -30q47 0 80 39q6 6 10 6q27 0 29 -14q0 -49 -57.5 -90t-108.5 -41q-45 0 -130 28.5t-132 28.5 q-33 0 -46.5 -8t-22.5 -21.5t-24 -19.5q-29 0 -28 21z" />
<glyph unicode="&#xf2;" horiz-adv-x="991" d="M55 403q0 176 129 306.5t305 130.5q182 0 315.5 -123t133.5 -305q0 -190 -128 -314.5t-321 -124.5q-188 0 -311 121t-123 309zM197 453q0 -162 89 -299.5t242 -137.5q135 0 202 98.5t67 239.5q0 170 -82 308.5t-238 138.5q-133 0 -206.5 -104.5t-73.5 -243.5zM297 1167 q0 33 37 33q53 0 80 -2q18 0 28 -22q6 -16 42 -88t46 -113q0 -27 -14 -27q-22 0 -65 37l-35 35t-53.5 55.5t-44 52t-21.5 39.5z" />
<glyph unicode="&#xf3;" horiz-adv-x="991" d="M55 403q0 176 129 306.5t305 130.5q182 0 315.5 -123t133.5 -305q0 -190 -128 -314.5t-321 -124.5q-188 0 -311 121t-123 309zM197 453q0 -162 89 -299.5t242 -137.5q135 0 202 98.5t67 239.5q0 170 -82 308.5t-238 138.5q-133 0 -206.5 -104.5t-73.5 -243.5zM463 971 q0 25 16.5 62.5t41 82.5t30.5 62q10 23 29 22q27 2 79 2q31 0 37 -26q0 -16 -39 -63.5t-76.5 -87.5t-39.5 -40q2 0 2 2q-49 -37 -66 -37q-14 0 -14 21z" />
<glyph unicode="&#xf4;" horiz-adv-x="991" d="M55 403q0 176 129 306.5t305 130.5q182 0 315.5 -123t133.5 -305q0 -190 -128 -314.5t-321 -124.5q-188 0 -311 121t-123 309zM197 453q0 -162 89 -299.5t242 -137.5q135 0 202 98.5t67 239.5q0 170 -82 308.5t-238 138.5q-133 0 -206.5 -104.5t-73.5 -243.5zM272 979 q0 8 10.5 23.5t22.5 29.5l12 12q6 8 29 38t34 45.5t30.5 36t36 29.5t32.5 9q39 0 69 -19.5t73 -71.5t47 -56q49 -50 51 -62q0 -16 -51.5 -37.5t-73.5 -21.5q-8 0 -31.5 23.5t-53.5 55t-32 34.5q-10 16 -20 16q-18 0 -54 -60.5t-57 -64.5q-18 0 -46 13.5t-28 27.5z" />
<glyph unicode="&#xf5;" horiz-adv-x="991" d="M55 403q0 176 129 306.5t305 130.5q182 0 315.5 -123t133.5 -305q0 -190 -128 -314.5t-321 -124.5q-188 0 -311 121t-123 309zM197 453q0 -162 89 -299.5t242 -137.5q135 0 202 98.5t67 239.5q0 170 -82 308.5t-238 138.5q-133 0 -206.5 -104.5t-73.5 -243.5zM221 1012 q66 131 168 131q47 0 132 -30t130 -30q47 0 80 39q6 6 10 6q27 0 29 -14q0 -49 -57.5 -90t-108.5 -41q-45 0 -130 28.5t-132 28.5q-33 0 -46 -8t-22.5 -21.5t-23.5 -19.5q-29 0 -29 21z" />
<glyph unicode="&#xf6;" horiz-adv-x="991" d="M55 403q0 176 129 306.5t305 130.5q182 0 315.5 -123t133.5 -305q0 -190 -128 -314.5t-321 -124.5q-188 0 -311 121t-123 309zM197 453q0 -162 89 -299.5t242 -137.5q135 0 202 98.5t67 239.5q0 170 -82 308.5t-238 138.5q-133 0 -206.5 -104.5t-73.5 -243.5zM264 1067v2 q0 25 33 63.5t55 41.5q20 0 56 -40t36 -62.5t-30.5 -64.5t-51.5 -44q-25 0 -59.5 38.5t-38.5 65.5zM549 1067v2q0 23 33.5 62.5t54.5 42.5q20 0 56 -40t36 -62.5t-30.5 -64.5t-51.5 -44q-29 0 -62.5 38.5t-35.5 65.5z" />
<glyph unicode="&#xf7;" d="M49 653v82h926v-82h-926zM434 315.5q0 32.5 22.5 55t55.5 22.5t55.5 -22.5t22.5 -55t-22.5 -55t-55.5 -22.5q-31 0 -54.5 22.5t-23.5 55zM434 1073q0 33 23.5 55.5t54.5 22.5q33 0 55.5 -22.5t22.5 -55.5q0 -31 -22.5 -54.5t-55.5 -23.5q-31 0 -54.5 22.5t-23.5 55.5z " />
<glyph unicode="&#xf8;" horiz-adv-x="1005" d="M63 4q0 16 19.5 37.5t51.5 49.5t36 32q-98 104 -98 283q0 176 132 305t308 129q148 0 287 -88q2 2 50 52t71 64q16 0 26 -12t10 -29q-4 -8 -114 -118q119 -143 119 -295q0 -190 -130.5 -315.5t-322.5 -125.5q-176 0 -295 107q-2 -2 -29.5 -34t-51 -53.5t-36.5 -21.5 q-10 0 -21.5 10.5t-11.5 22.5zM215 456.5q0 -137.5 51 -237.5l463 463q-90 125 -248 125q-131 0 -198.5 -106.5t-67.5 -244zM297 164q98 -145 254 -146q131 0 199.5 100.5t68.5 239.5q0 119 -57 269z" />
<glyph unicode="&#xf9;" horiz-adv-x="1030" d="M27 811q0 27 137 27q14 0 47 9t49 9q20 0 24.5 -13.5t4.5 -49.5l-4 -447q0 -143 43 -205q66 -96 174 -96q96 0 160.5 55.5t64.5 149.5v442q0 63 -30.5 83t-61.5 19t-31 17q0 20 35 25q143 10 182 20q12 4 25 4q20 0 20 -33v-14v-616q0 -43 3 -70t23.5 -53.5t59.5 -26.5 q4 0 11.5 1t11.5 1q25 0 29 -14q0 -25 -52 -25q-31 0 -95 -9t-97 -9t-33 82v49q-119 -150 -283 -150q-143 0 -220 89.5t-77 234.5q0 10 1.5 34.5t1.5 35.5v331q0 55 -31 75t-61.5 22t-30.5 16zM324 1159q0 33 36 33q53 0 80 -2q18 0 29 -23q6 -16 42 -87.5t46 -112.5 q0 -27 -14 -27q-23 0 -66 37l-34.5 34.5t-53 55.5t-44 52.5t-21.5 39.5z" />
<glyph unicode="&#xfa;" horiz-adv-x="1030" d="M27 811q0 27 137 27q14 0 47 9t49 9q20 0 24.5 -13.5t4.5 -49.5l-4 -447q0 -143 43 -205q66 -96 174 -96q96 0 160.5 55.5t64.5 149.5v442q0 63 -30.5 83t-61.5 19t-31 17q0 20 35 25q143 10 182 20q12 4 25 4q20 0 20 -33v-14v-616q0 -43 3 -70t23.5 -53.5t59.5 -26.5 q4 0 11.5 1t11.5 1q25 0 29 -14q0 -25 -52 -25q-31 0 -95 -9t-97 -9t-33 82v49q-119 -150 -283 -150q-143 0 -220 89.5t-77 234.5q0 10 1.5 34.5t1.5 35.5v331q0 55 -31 75t-61.5 22t-30.5 16zM426 969q0 25 16.5 62.5t41 82.5t30.5 62q10 23 29 22q27 2 80 2q31 0 36 -26 q0 -16 -38.5 -63.5t-76.5 -87.5t-40 -40q2 0 2 2q-49 -37 -66 -37q-14 0 -14 21z" />
<glyph unicode="&#xfb;" horiz-adv-x="1030" d="M27 811q0 27 137 27q14 0 47 9t49 9q20 0 24.5 -13.5t4.5 -49.5l-4 -447q0 -143 43 -205q66 -96 174 -96q96 0 160.5 55.5t64.5 149.5v442q0 63 -30.5 83t-61.5 19t-31 17q0 20 35 25q143 10 182 20q12 4 25 4q20 0 20 -33v-14v-616q0 -43 3 -70t23.5 -53.5t59.5 -26.5 q4 0 11.5 1t11.5 1q25 0 29 -14q0 -25 -52 -25q-31 0 -95 -9t-97 -9t-33 82v49q-119 -150 -283 -150q-143 0 -220 89.5t-77 234.5q0 10 1.5 34.5t1.5 35.5v331q0 55 -31 75t-61.5 22t-30.5 16zM291 989q0 8 10 23.5t23 27.5l12 15q6 8 28.5 37.5t34 45t31 36t35.5 29.5t33 9 q39 0 68.5 -19t72.5 -71.5t47 -56.5q49 -49 51 -61q0 -16 -51 -38t-74 -22q-8 0 -31.5 23.5t-53 55.5t-31.5 34q-10 16 -21 16q-18 0 -54 -60.5t-56 -64.5q-18 0 -46 13.5t-28 27.5z" />
<glyph unicode="&#xfc;" horiz-adv-x="1030" d="M27 811q0 27 137 27q14 0 47 9t49 9q20 0 24.5 -13.5t4.5 -49.5l-4 -447q0 -143 43 -205q66 -96 174 -96q96 0 160.5 55.5t64.5 149.5v442q0 63 -30.5 83t-61.5 19t-31 17q0 20 35 25q143 10 182 20q12 4 25 4q20 0 20 -33v-14v-616q0 -43 3 -70t23.5 -53.5t59.5 -26.5 q4 0 11.5 1t11.5 1q25 0 29 -14q0 -25 -52 -25q-31 0 -95 -9t-97 -9t-33 82v49q-119 -150 -283 -150q-143 0 -220 89.5t-77 234.5q0 10 1.5 34.5t1.5 35.5v331q0 55 -31 75t-61.5 22t-30.5 16zM285 1067v2q0 25 32.5 63.5t55.5 41.5q20 0 56 -40t36 -62.5t-31 -64.5t-51 -44 q-25 0 -59.5 38.5t-38.5 65.5zM569 1067v2q0 23 34 62.5t54 42.5q20 0 56.5 -40t36.5 -62.5t-31 -64.5t-51 -44q-29 0 -63 38.5t-36 65.5z" />
<glyph unicode="&#xfd;" horiz-adv-x="786" d="M-39 797q0 20 31 20q25 0 76 -3t75 -3q29 0 85.5 2t84.5 2q25 0 27 -16q0 -14 -18.5 -20.5t-39 -7.5t-39 -13.5t-18.5 -36.5q0 -35 33 -111l197 -467l147 412q25 61 25 125q0 45 -33 66.5t-65.5 30.5t-32.5 26q2 14 20 14q14 0 43 -2t43 -2q33 0 97.5 2t97.5 2 q20 0 20 -18q0 -10 -20 -21q-41 -16 -57.5 -36.5t-32.5 -65.5l-355 -1000q-14 -45 -30.5 -55t-67.5 -10h-14q-55 0 -56 14q0 8 29 45t64.5 81t64.5 103.5t29 108.5q0 33 -37 121l-252 582q-23 55 -47.5 81.5t-38.5 26.5t-24.5 3t-10.5 20zM362 969q0 25 16.5 62.5t41 82.5 t31.5 62q10 23 28 22q27 2 80 2q31 0 37 -26q0 -16 -39 -63.5t-77 -87.5t-40 -40q2 0 2 2q-49 -37 -65 -37q-14 0 -15 21z" />
<glyph unicode="&#xfe;" horiz-adv-x="1038" d="M57 1350q0 16 25 24q51 12 127 42t100 54q8 8 15 9q20 0 20 -31v-14l-4 -742q143 147 283 148q162 0 261 -115t99 -281q0 -188 -121 -329.5t-305 -141.5q-86 0 -217 60q0 -37 -2 -99.5t-2 -87.5q0 -102 30.5 -149t127.5 -49q27 0 30 -17q0 -20 -28 -20h-86q-88 0 -131 4 q-25 0 -70 -4t-70 -4q-43 0 -43 18q0 12 16.5 20.5t36 19.5t36 55t16.5 120v1354q0 143 -82 143q-8 0 -22.5 -1t-18.5 -1q-20 0 -21 15zM340 244q0 -100 74.5 -158.5t179.5 -58.5q139 0 206.5 94t67.5 237q0 154 -80.5 273t-226.5 119q-80 0 -150.5 -45t-70.5 -121v-340z " />
<glyph unicode="&#xff;" horiz-adv-x="786" d="M-39 797q0 20 31 20q25 0 76 -3t75 -3q29 0 85.5 2t84.5 2q25 0 27 -16q0 -14 -18.5 -20.5t-39 -7.5t-39 -13.5t-18.5 -36.5q0 -35 33 -111l197 -467l147 412q25 61 25 125q0 45 -33 66.5t-65.5 30.5t-32.5 26q2 14 20 14q14 0 43 -2t43 -2q33 0 97.5 2t97.5 2 q20 0 20 -18q0 -10 -20 -21q-41 -16 -57.5 -36.5t-32.5 -65.5l-355 -1000q-14 -45 -30.5 -55t-67.5 -10h-14q-55 0 -56 14q0 8 29 45t64.5 81t64.5 103.5t29 108.5q0 33 -37 121l-252 582q-23 55 -47.5 81.5t-38.5 26.5t-24.5 3t-10.5 20zM164 1067v2q0 25 32.5 63.5 t55.5 41.5q20 0 56 -40t36 -62.5t-30.5 -64.5t-51.5 -44q-25 0 -59.5 38.5t-38.5 65.5zM449 1067v2q0 23 33.5 62.5t54.5 42.5q20 0 56 -40t36 -62.5t-31 -64.5t-51 -44q-29 0 -62.5 38.5t-35.5 65.5z" />
<glyph unicode="&#x152;" horiz-adv-x="1941" d="M70 676q0 307 203.5 512t510.5 205q82 0 245 -18.5t247 -18.5q25 0 92.5 -1t108.5 -1q188 0 276 16q29 4 45 4q41 0 45 -26q0 -23 -7 -68t-7 -70q0 -111 -39 -110q-16 0 -16 35q0 43 -15.5 73.5t-37 47t-58.5 24.5t-65.5 10t-73.5 2q-25 0 -74 -1t-74 -1q-47 0 -71 2 q-90 0 -91 -84q0 -8 1.5 -23.5t1.5 -19.5v-331v-43q0 -55 79 -56q33 0 99.5 2t99.5 2q92 0 137 23.5t62 103.5q8 23 24 23q20 0 21 -21q0 -37 -6.5 -108.5t-6.5 -108.5q0 -43 3 -53q8 -66 8 -74q0 -37 -21 -37q-14 0 -22 12.5t-12.5 25t-6.5 33t-4 24.5q-18 74 -235 73 q-31 0 -85.5 -1t-76.5 -1q-35 0 -46 -14t-11 -47v-365q0 -100 26.5 -125.5t126.5 -25.5q143 0 247.5 19.5t156 47t81 54t44 48t24.5 23.5q18 0 19 -22q0 -96 -93.5 -179t-191.5 -83q-47 0 -96 6q-178 14 -385 14q-66 0 -196 -15.5t-194 -15.5q-313 0 -514.5 196t-201.5 507z M227 752q0 -178 74 -341t219.5 -271.5t327.5 -108.5q215 0 215 272v737q0 147 -49 201q-82 92 -287 92q-233 0 -366.5 -170t-133.5 -411z" />
<glyph unicode="&#x153;" horiz-adv-x="1554" d="M55 401q0 176 126 307.5t300 131.5q256 0 389 -193q51 86 133 139.5t177 53.5q127 0 231.5 -93.5t112.5 -220.5q0 -27 -41 -30q-41 0 -127 3t-127 3q-49 0 -145.5 -1t-143.5 -1q0 -98 30.5 -191.5t104.5 -164t176 -70.5q70 0 127.5 23.5t93 50t41.5 28.5q14 0 15 -16 q0 -66 -130 -126.5t-216 -60.5q-96 0 -178 51.5t-134 135.5q-139 -186 -374 -187q-193 0 -317 119t-124 309zM195 473q0 -172 87 -315.5t248 -143.5q133 0 201 102.5t68 241.5q0 106 -32 202.5t-108.5 167.5t-185.5 71q-125 0 -201.5 -98.5t-76.5 -227.5zM944 555 q115 -4 344 -4q72 0 72 35q0 86 -66.5 149.5t-152.5 63.5q-84 0 -137.5 -77t-59.5 -167z" />
<glyph unicode="&#x178;" horiz-adv-x="1196" d="M-41 1356q0 23 31 22q29 0 89 -4t91 -4q43 0 125 3t125 3q27 0 29 -18q0 -10 -44.5 -31.5t-46.5 -54.5q0 -20 7.5 -43t15.5 -36t24.5 -36.5t22.5 -34.5l209 -329q20 -35 31 -35q12 0 30 30l146 220q119 184 119 227q0 45 -37 64.5t-75 28.5t-38 26q0 18 25 18 q113 -10 135 -10q39 0 118.5 3t120.5 3q27 0 27 -18q0 -12 -25 -23q-20 -8 -38.5 -18.5t-32 -18.5t-29.5 -24.5t-23.5 -23.5t-23.5 -28.5t-20.5 -28.5t-22.5 -34t-23 -33l-243 -362q-37 -53 -49.5 -90.5t-12.5 -100.5v-327v-62q0 -72 23.5 -106.5t105.5 -42.5q31 0 31 -21 q0 -23 -27 -22q-35 0 -106.5 7t-106.5 7q-29 0 -102.5 -5t-112.5 -5q-23 0 -22 18q0 16 25.5 23.5t55 12.5t55.5 45t26 114v57v297q0 98 -52 180l-280 443q-43 74 -94.5 115.5t-126.5 45.5q-29 0 -29 17zM395 1618v2q0 25 33 63.5t55 40.5q20 0 56 -39.5t36 -62.5 t-30.5 -64.5t-50.5 -44.5q-25 0 -60 39t-39 66zM680 1618v2q0 23 34 62.5t54 41.5q20 0 56 -39.5t36 -62.5t-30.5 -64.5t-51.5 -44.5q-29 0 -62.5 39t-35.5 66z" />
<glyph unicode="&#x2c6;" d="M295 987q0 8 10 23.5t23 29.5l12 13q6 8 28.5 37.5t34 45t31 36t35.5 29.5t33 9q39 0 68.5 -19.5t72.5 -71.5t47 -56q49 -50 51 -62q0 -16 -51 -37.5t-74 -21.5q-8 0 -31.5 23.5t-53 55.5t-31.5 34q-10 16 -21 16q-18 0 -54 -60.5t-56 -64.5q-18 0 -46 13.5t-28 27.5z " />
<glyph unicode="&#x2dc;" d="M240 1012q66 131 168 131q47 0 132 -30t130 -30q47 0 80 39q6 6 10 6q27 0 28 -14q0 -49 -57 -90t-108 -41q-45 0 -130 28.5t-133 28.5q-33 0 -46 -8t-22 -21.5t-24 -19.5q-29 0 -28 21z" />
<glyph unicode="&#x2000;" horiz-adv-x="876" />
<glyph unicode="&#x2001;" horiz-adv-x="1753" />
<glyph unicode="&#x2002;" horiz-adv-x="876" />
<glyph unicode="&#x2003;" horiz-adv-x="1753" />
<glyph unicode="&#x2004;" horiz-adv-x="584" />
<glyph unicode="&#x2005;" horiz-adv-x="438" />
<glyph unicode="&#x2006;" horiz-adv-x="292" />
<glyph unicode="&#x2007;" horiz-adv-x="292" />
<glyph unicode="&#x2008;" horiz-adv-x="219" />
<glyph unicode="&#x2009;" horiz-adv-x="350" />
<glyph unicode="&#x200a;" horiz-adv-x="97" />
<glyph unicode="&#x2010;" horiz-adv-x="395" d="M6 330q0 68 14.5 88t73.5 39q25 6 151 54t146 48q10 0 10 -18v-15q0 -12 1 -29.5t1 -23.5q0 -29 -11 -39t-54 -24q-23 -6 -95.5 -36t-138 -53.5t-86.5 -23.5q-12 0 -12 33z" />
<glyph unicode="&#x2011;" horiz-adv-x="395" d="M6 330q0 68 14.5 88t73.5 39q25 6 151 54t146 48q10 0 10 -18v-15q0 -12 1 -29.5t1 -23.5q0 -29 -11 -39t-54 -24q-23 -6 -95.5 -36t-138 -53.5t-86.5 -23.5q-12 0 -12 33z" />
<glyph unicode="&#x2012;" horiz-adv-x="395" d="M6 330q0 68 14.5 88t73.5 39q25 6 151 54t146 48q10 0 10 -18v-15q0 -12 1 -29.5t1 -23.5q0 -29 -11 -39t-54 -24q-23 -6 -95.5 -36t-138 -53.5t-86.5 -23.5q-12 0 -12 33z" />
<glyph unicode="&#x2013;" horiz-adv-x="1009" d="M152 369v110h737v-110h-737z" />
<glyph unicode="&#x2014;" horiz-adv-x="1222" d="M0 369v110h1223v-110h-1223z" />
<glyph unicode="&#x2018;" horiz-adv-x="501" d="M84 1147q0 94 66.5 210t142.5 124q20 0 20 -17q0 -8 -27.5 -30.5t-55 -65.5t-27.5 -102q0 -104 104 -166q29 -18 29 -33q0 -20 -19 -35q-27 -23 -44 -42t-22 -26.5t-10 -12.5t-8.5 -6t-17.5 -1q-55 0 -93 79t-38 124z" />
<glyph unicode="&#x2019;" horiz-adv-x="501" d="M84 1360q0 12 9 24.5t30 28.5l22 17q2 4 11.5 16t14.5 17t14.5 11.5t19.5 6.5q49 0 90 -72t41 -131q0 -90 -64.5 -209t-144.5 -125q-20 0 -21 17q0 2 29 30.5t56.5 74.5t27.5 89q0 111 -106 172q-29 14 -29 33z" />
<glyph unicode="&#x201a;" horiz-adv-x="501" d="M84 111q0 18 56.5 69t64.5 51q51 0 91 -72.5t40 -129.5q0 -90 -64.5 -209t-144.5 -125q-20 0 -21 16q0 2 29 31t56.5 75t27.5 89q0 53 -33.5 97t-67.5 70.5t-34 37.5z" />
<glyph unicode="&#x201c;" horiz-adv-x="837" d="M84 1147q0 94 66.5 210t142.5 124q20 0 20 -17q0 -8 -27.5 -30.5t-55 -65.5t-27.5 -102q0 -104 104 -166q29 -18 29 -33q0 -20 -19 -35q-27 -23 -44 -42t-22 -26.5t-10 -12.5t-8.5 -6t-17.5 -1q-55 0 -93 79t-38 124zM420 1147q0 94 66.5 210t142.5 124q20 0 20 -17 q0 -8 -17.5 -23.5t-38 -33.5t-37.5 -56t-17 -85q0 -104 104 -166q29 -18 29 -33q0 -20 -19 -35q-6 -4 -29.5 -28.5t-44 -42t-28.5 -17.5q-55 0 -93 79t-38 124z" />
<glyph unicode="&#x201d;" horiz-adv-x="837" d="M84 1360q0 12 9 24.5t30 28.5l22 17q2 4 11.5 16t14.5 17t14.5 11.5t19.5 6.5q49 0 90 -72t41 -131q0 -90 -64.5 -209t-144.5 -125q-20 0 -21 17q0 2 29 30.5t56.5 74.5t27.5 89q0 111 -106 172q-29 14 -29 33zM420 1360q0 12 9 24.5t30 28.5l22 17q2 4 11.5 16t14.5 17 t14 11.5t20 6.5q49 0 90 -72t41 -131q0 -96 -67.5 -211t-141.5 -123q-20 0 -21 17q0 2 28 29.5t55.5 73.5t27.5 89q0 49 -20.5 88t-46 56.5t-46 35t-20.5 27.5z" />
<glyph unicode="&#x201e;" horiz-adv-x="837" d="M84 106q0 18 56.5 69.5t64.5 51.5q53 0 92 -72.5t39 -129.5q0 -94 -65.5 -210t-143.5 -124q-20 0 -21 16q0 2 29 31t56.5 75t27.5 89q0 53 -33.5 97t-67.5 70.5t-34 36.5zM420 106q0 18 18 33q16 14 39 39t37 37t27 12q53 0 92 -72.5t39 -129.5q0 -94 -65.5 -210 t-143.5 -124q-20 0 -21 16q0 2 28 29.5t55.5 74t27.5 89.5q0 57 -33 100t-66.5 67.5t-33.5 38.5z" />
<glyph unicode="&#x2022;" horiz-adv-x="1228" d="M406 586q0 82 57 139t139 57q84 0 142.5 -57t58.5 -139t-58.5 -139.5t-142.5 -57.5q-82 0 -139 57.5t-57 139.5z" />
<glyph unicode="&#x2026;" horiz-adv-x="1525" d="M125 106q0 14 33 37q14 8 50 51.5t46 45.5q18 0 41 -37q8 -16 48 -49t40 -49.5t-35 -41.5q-12 -6 -31.5 -29.5t-36 -42t-22.5 -18.5q-8 0 -15 4.5t-11.5 8.5t-10.5 12t-10 12q-6 8 -46 44t-40 52zM633 106q0 14 33 37q45 25 61 60t35 37q18 0 41 -37q12 -23 51 -53 q37 -27 37 -46q0 -16 -35 -41q-14 -10 -33.5 -33.5t-34 -40t-22.5 -16.5t-16.5 4.5t-11.5 7.5t-9 13t-8 12q-20 27 -39.5 42.5t-29 18.5t-14.5 11t-5 24zM1143 106.5q0 16.5 33 36.5q27 14 42 33t19 31t11 21.5t22 11.5q16 0 21 -2t6 -8.5t4.5 -14.5t18.5 -26.5t42 -38.5 q39 -29 39 -46q0 -18 -37 -41q-25 -16 -40 -34.5t-19.5 -29.5t-11.5 -18.5t-19 -7.5h-14.5t-8.5 2t-5 5.5t-6 12.5t-11 17q-4 8 -45 44t-41 52.5z" />
<glyph unicode="&#x202f;" horiz-adv-x="350" />
<glyph unicode="&#x2039;" horiz-adv-x="421" d="M74 410q2 8 39 59t85 120.5t68 115.5q16 29 31 28q27 -6 27 -33q-4 -49 -52.5 -142t-48.5 -146q0 -41 64.5 -156t72.5 -160q0 -23 -22 -26q-16 0 -32.5 14t-27 29.5t-23.5 40t-17 30.5q-16 23 -59.5 72t-74 90t-30.5 64z" />
<glyph unicode="&#x203a;" horiz-adv-x="421" d="M70 92q0 39 67.5 151.5t67.5 164.5q0 55 -48 149t-53 143q0 31 23 33q23 0 35 -28q23 -47 71 -117t83.5 -119t37.5 -61q0 -37 -49 -86q-37 -35 -83 -100.5t-78.5 -108.5t-49.5 -43q-25 0 -24 22z" />
<glyph unicode="&#x205f;" horiz-adv-x="438" />
<glyph unicode="&#x2122;" horiz-adv-x="1968" d="M12 1200q0 8 1 15.5t3 16.5t2 15q0 2 4.5 44t14.5 58.5t33 16.5h667q35 0 45.5 -10t10.5 -41q0 -29 4 -48.5t4 -35.5q0 -27 -21 -27q-12 0 -19 13.5t-10 30t-24.5 29.5t-58.5 13h-174q-23 0 -28 -6t-5 -29v-548v-39q0 -37 14 -59.5t62 -30.5q27 0 28 -19q0 -20 -26 -20 q-14 0 -43 3t-43 3q-31 0 -89.5 -3t-87.5 -3q-31 0 -30 20q2 10 27.5 16.5t50 23.5t24.5 60v41v549q0 47 -80 47q-18 0 -57 -3t-55 -3q-53 0 -75 -28.5t-27 -56t-21 -27.5q-20 0 -21 22zM862 1353.5q0 16.5 21 16.5q14 0 43.5 -1t44.5 -1q27 0 41 2q37 0 51 -8t31 -45 l260 -531q31 -59 35 -71q0 4 2 6q0 4 12 29l291 593q18 31 32 31q23 0 33 -2q16 0 49 1t50 1q23 0 22 -14q0 -20 -18 -25q-80 -18 -80 -94q0 -31 3 -91t3 -91l12 -320l2 -73q2 -43 17.5 -60.5t56.5 -24t41 -22.5q0 -20 -35 -20q-20 0 -62 4t-65 4q-20 0 -60 -3t-61 -3 q-27 0 -26 18q0 10 19.5 16.5t39 30t19.5 72.5q0 16 -1.5 48t-1.5 48l-16 348q-106 -184 -225 -446l-6 -17q-6 -14 -14.5 -29.5t-18.5 -33.5t-19.5 -29.5t-17.5 -11.5q-18 0 -30.5 13.5t-24 41t-13.5 33.5l-219 451l-12 -260q-2 -23 -2 -72v-53q0 -119 70 -127q43 -8 45 -23 q0 -23 -27 -22q-23 0 -66 4t-65 4q-18 0 -53 -4t-51 -4q-27 0 -27 18q0 14 32.5 26.5t41.5 24.5q43 72 43 504q0 78 -15.5 126t-37 63.5t-42 21.5t-36 11t-15.5 21.5z" />
<glyph unicode="&#x25fc;" horiz-adv-x="819" d="M0 0v819h819v-819h-819z" />
<glyph unicode="&#xfb01;" horiz-adv-x="1044" d="M59 739q0 72 82 72q12 0 34 -1t32 -1q14 248 98 383q63 104 154.5 175t197.5 71q76 0 80 -31q0 -29 -14 -78t-35 -55q-8 0 -18.5 16.5t-37 32.5t-77.5 16q-215 0 -215 -460q0 -47 2 -70q12 0 46 -1t54 -1q94 0 121 27l17 6q12 0 12 -19q0 -27 -20.5 -61.5t-39.5 -34.5 h-190v-557q0 -72 22.5 -101.5t90.5 -35.5q37 0 37 -18.5t-31 -18.5q-117 6 -119 6q-35 0 -102.5 -4t-100.5 -4q-27 0 -28 18q0 10 23.5 20.5t47 42t23.5 89.5v563h-117q-29 0 -29 14zM596 739q0 18 51 33q104 39 144 64q45 27 51 26.5t8 -2.5q8 -6 8 -76q0 -20 -1 -59 t-1 -49v-510q0 -78 24.5 -100.5t102.5 -32.5q37 -6 37 -25q-2 -18 -29 -18q-23 0 -67.5 3t-67.5 3q-33 0 -102.5 -4t-102.5 -4q-27 0 -26 18q0 8 23.5 19.5t47 43t23.5 89.5v436q0 72 -20.5 102.5t-84.5 30.5q-18 0 -18 12zM700 1147v2q0 10 6.5 19.5t18.5 25.5l14 16 q35 41 56 41q18 0 50 -37.5t32 -64.5q0 -23 -31 -62.5t-53 -42.5q-27 0 -60 38t-33 65z" />
<glyph unicode="&#xfb02;" horiz-adv-x="1046" d="M59 739q0 72 82 72q12 0 34 -1t32 -1q14 248 98 383q63 104 154.5 175t197.5 71q35 -1 66 -13l20 9q12 4 43 23.5t50 23.5h2q14 0 14 -37q0 -6 -1 -19.5t-1 -19.5v-1174q0 -92 28.5 -136t114.5 -56q29 -4 29 -22.5t-21 -22.5q-10 0 -30.5 4t-32.5 4q-49 0 -149.5 -4 t-149.5 -4q-31 0 -31 18q0 10 25.5 21.5t52.5 42t27 92.5v55v1000q0 47 -4 69q-12 -16 -21 -18q-8 0 -18.5 16.5t-37 32.5t-77.5 16q-215 0 -215 -460q0 -47 2 -70q12 0 46 -1t54 -1q94 0 121 27l17 6q12 0 12 -19q0 -27 -20.5 -61.5t-39.5 -34.5h-190v-557 q0 -72 22.5 -101.5t90.5 -35.5q37 0 37 -18.5t-31 -18.5q-117 6 -119 6q-35 0 -102.5 -4t-100.5 -4q-27 0 -28 18q0 10 23.5 20.5t47 42t23.5 89.5v563h-117q-29 0 -29 14z" />
</font>
</defs>
</svg>
